<svg id="svg" version="1.1" xmlns="http://www.w3.org/2000/svg" xmlns:xlink="http://www.w3.org/1999/xlink" width="400" height="342.0814479638009" viewBox="0, 0, 400,342.0814479638009"><g id="svgg"><path id="path0" d="M260.359 52.043 C 249.479 52.740,236.533 55.020,230.967 57.219 C 230.496 57.405,228.263 58.169,226.005 58.916 C 223.747 59.664,220.035 61.110,217.758 62.131 C 215.480 63.151,213.372 63.986,213.073 63.986 C 212.774 63.986,212.449 64.117,212.350 64.278 C 212.251 64.438,211.433 64.848,210.533 65.189 C 209.633 65.530,208.340 66.158,207.659 66.584 C 206.979 67.010,204.141 68.622,201.352 70.166 C 196.464 72.873,195.443 73.529,190.591 77.075 C 185.322 80.926,185.894 80.450,179.508 86.315 C 175.315 90.165,174.488 91.005,172.231 93.703 C 171.073 95.088,169.552 96.628,168.852 97.126 L 167.579 98.033 139.649 98.236 L 111.719 98.440 107.730 99.326 C 105.535 99.813,103.066 100.518,102.243 100.893 C 101.420 101.268,100.296 101.688,99.747 101.826 C 98.026 102.258,93.994 104.255,92.387 105.471 C 91.540 106.111,90.616 106.722,90.334 106.828 C 88.092 107.667,83.422 112.220,82.975 114.002 C 82.634 115.359,78.866 115.310,175.555 115.222 L 264.711 115.141 265.840 114.191 C 266.461 113.668,267.761 112.072,268.729 110.644 C 271.346 106.782,271.355 106.769,273.525 103.904 C 274.630 102.444,276.090 100.872,276.769 100.411 L 278.003 99.572 319.764 99.572 C 355.822 99.572,361.622 99.504,362.238 99.073 L 362.951 98.573 362.800 75.891 C 362.651 53.438,362.642 53.200,361.932 52.438 L 361.215 51.668 312.943 51.718 C 286.393 51.745,262.730 51.892,260.359 52.043 M152.020 123.952 C 150.759 125.322,146.675 134.705,144.994 140.095 C 143.224 145.767,145.091 145.471,111.891 145.353 C 98.246 145.304,86.005 145.389,84.688 145.540 C 81.934 145.857,75.340 147.349,74.792 147.780 C 74.589 147.940,73.576 148.340,72.541 148.670 C 70.255 149.399,67.053 150.917,65.129 152.185 C 58.541 156.525,54.944 159.775,55.146 161.203 L 55.261 162.019 146.470 162.019 L 237.679 162.019 238.813 161.065 C 239.437 160.540,240.583 159.147,241.359 157.970 C 242.136 156.793,242.965 155.606,243.200 155.332 C 243.436 155.057,244.188 153.986,244.870 152.951 C 245.552 151.916,246.463 150.684,246.893 150.214 C 248.128 148.864,249.508 146.035,249.121 145.648 C 248.909 145.436,239.565 145.302,223.676 145.283 C 196.248 145.250,197.704 145.362,197.153 143.242 C 196.635 141.252,199.181 135.954,201.530 134.132 C 201.651 134.038,202.468 132.883,203.345 131.565 C 204.223 130.248,206.013 128.019,207.324 126.612 C 209.115 124.691,209.618 123.946,209.346 123.618 C 209.058 123.271,203.231 123.182,180.856 123.182 L 152.728 123.182 152.020 123.952 M139.805 170.511 C 138.715 171.308,138.032 178.756,138.534 184.380 C 138.981 189.395,138.647 191.119,137.073 191.925 C 136.578 192.178,124.105 192.320,96.835 192.385 C 68.406 192.452,57.072 192.587,56.452 192.864 C 55.978 193.077,53.825 193.509,51.668 193.826 C 49.512 194.142,47.590 194.526,47.398 194.678 C 47.206 194.830,45.817 195.376,44.311 195.891 C 41.391 196.889,39.233 197.953,37.297 199.351 C 33.024 202.436,31.444 203.742,28.867 206.320 C 26.444 208.744,26.071 209.257,26.587 209.461 C 26.926 209.594,68.566 209.715,119.122 209.728 L 211.041 209.752 212.106 208.298 C 212.692 207.498,213.939 205.801,214.876 204.526 C 215.813 203.252,216.762 201.866,216.985 201.447 C 217.208 201.027,218.020 199.857,218.789 198.847 C 219.559 197.836,220.374 196.684,220.602 196.286 C 220.829 195.889,221.229 195.407,221.491 195.215 C 221.856 194.948,222.427 193.003,222.268 192.572 C 222.253 192.533,214.790 192.418,205.682 192.316 L 189.124 192.130 188.418 191.185 C 187.893 190.480,187.655 189.479,187.482 187.250 C 187.356 185.606,187.055 183.212,186.814 181.930 C 186.436 179.918,186.454 179.241,186.944 176.961 C 187.840 172.788,187.731 171.218,186.501 170.582 C 185.095 169.855,140.795 169.787,139.805 170.511 M144.967 217.850 C 143.739 219.078,147.725 230.172,152.445 238.666 C 153.073 239.795,153.902 241.334,154.288 242.087 C 154.673 242.840,155.833 244.842,156.865 246.536 C 157.897 248.229,159.076 250.231,159.486 250.984 C 159.895 251.737,160.556 252.758,160.954 253.253 C 161.351 253.748,162.062 254.656,162.532 255.270 C 163.003 255.884,163.663 256.678,163.999 257.034 C 164.336 257.390,164.874 258.113,165.197 258.639 C 167.864 262.998,175.606 271.401,181.523 276.361 C 183.216 277.781,184.756 279.132,184.944 279.365 C 185.133 279.598,186.287 280.473,187.511 281.311 C 189.703 282.811,190.840 283.679,191.935 284.688 C 192.241 284.970,193.599 285.939,194.951 286.840 C 196.304 287.742,197.499 288.623,197.607 288.798 C 197.716 288.973,198.452 289.432,199.244 289.818 C 200.036 290.203,202.070 291.362,203.764 292.393 C 205.458 293.424,207.150 294.372,207.524 294.500 C 207.898 294.628,209.030 295.168,210.040 295.699 C 211.049 296.229,212.069 296.664,212.307 296.664 C 212.545 296.664,213.110 296.955,213.563 297.312 C 214.016 297.668,215.153 298.195,216.090 298.483 C 217.027 298.770,218.403 299.326,219.148 299.717 C 219.894 300.108,220.818 300.428,221.202 300.429 C 221.585 300.430,222.417 300.746,223.050 301.132 C 223.684 301.518,225.070 301.993,226.130 302.187 C 227.190 302.381,228.520 302.821,229.085 303.165 C 229.649 303.508,230.881 303.895,231.822 304.024 C 232.763 304.152,234.112 304.549,234.821 304.906 C 235.529 305.262,237.408 305.702,238.996 305.882 C 240.584 306.063,242.391 306.476,243.012 306.800 C 243.835 307.230,245.484 307.462,249.102 307.658 C 251.831 307.806,255.372 308.191,256.972 308.514 C 260.198 309.166,361.328 309.661,362.305 309.029 C 362.679 308.788,362.773 304.450,362.818 285.389 L 362.874 262.044 362.066 261.390 C 361.280 260.753,359.988 260.735,312.280 260.727 C 261.925 260.719,258.232 260.664,255.603 259.883 C 254.756 259.632,253.216 259.332,252.181 259.218 C 251.146 259.103,249.453 258.719,248.417 258.364 C 247.382 258.008,245.612 257.484,244.482 257.199 C 242.215 256.626,237.867 255.163,236.270 254.436 C 235.706 254.179,234.865 253.854,234.403 253.713 C 233.339 253.391,229.872 251.459,226.587 249.358 C 225.778 248.841,225.000 248.417,224.859 248.417 C 224.718 248.417,223.620 247.686,222.419 246.792 C 221.219 245.898,219.379 244.567,218.330 243.834 C 213.736 240.623,207.097 234.172,204.277 230.179 C 203.242 228.714,201.802 226.715,201.076 225.737 C 200.351 224.759,199.381 223.265,198.920 222.416 C 197.456 219.715,196.495 218.230,196.017 217.927 C 195.477 217.585,145.308 217.509,144.967 217.850 " stroke="none" fill="#fbfbfb" fill-rule="evenodd"></path><path id="path1" d="M257.126 46.502 C 255.988 46.615,254.646 46.976,254.145 47.305 C 253.411 47.787,252.441 47.908,249.199 47.924 C 243.961 47.950,242.525 48.205,242.092 49.190 C 241.770 49.922,241.569 49.957,237.753 49.957 C 233.788 49.957,232.678 50.262,232.678 51.350 C 232.678 51.525,231.746 51.668,230.608 51.668 C 228.840 51.668,228.423 51.793,227.746 52.524 C 227.190 53.123,226.594 53.379,225.752 53.379 C 223.740 53.379,222.331 53.787,222.166 54.417 C 222.056 54.837,221.508 55.076,220.279 55.239 C 219.021 55.406,218.366 55.698,217.888 56.306 C 217.365 56.972,216.916 57.143,215.693 57.143 C 213.964 57.143,212.831 57.614,212.831 58.334 C 212.831 58.667,212.327 58.849,211.206 58.921 C 209.904 59.004,209.514 59.178,209.243 59.795 C 209.023 60.297,208.606 60.566,208.045 60.569 C 206.366 60.578,205.646 60.948,205.646 61.802 C 205.646 62.552,205.509 62.618,203.942 62.618 C 202.409 62.618,202.216 62.704,202.022 63.473 C 201.854 64.144,201.590 64.328,200.796 64.328 C 199.560 64.328,198.460 64.877,198.460 65.494 C 198.460 65.763,197.898 66.042,197.097 66.170 C 196.175 66.317,195.554 66.663,195.176 67.240 C 194.847 67.742,194.292 68.092,193.825 68.092 C 193.264 68.092,193.001 68.317,192.924 68.862 C 192.849 69.386,192.541 69.669,191.959 69.747 C 191.488 69.810,190.719 70.213,190.248 70.644 C 189.778 71.074,188.969 71.526,188.452 71.648 C 187.865 71.786,187.511 72.096,187.511 72.472 C 187.511 72.828,187.090 73.234,186.484 73.462 C 185.795 73.722,185.458 74.085,185.458 74.564 C 185.458 75.132,185.244 75.278,184.415 75.278 C 183.760 75.278,183.092 75.578,182.618 76.086 C 182.204 76.530,181.528 76.999,181.117 77.129 C 180.703 77.258,180.320 77.701,180.261 78.117 C 180.193 78.596,179.873 78.911,179.385 78.980 C 178.911 79.047,178.537 79.401,178.411 79.901 C 178.289 80.388,177.912 80.756,177.470 80.819 C 177.014 80.884,176.691 81.210,176.626 81.673 C 176.559 82.139,176.237 82.462,175.770 82.528 C 175.308 82.594,174.981 82.917,174.916 83.372 C 174.854 83.810,174.487 84.192,174.013 84.310 C 173.545 84.428,173.129 84.856,173.006 85.345 C 172.875 85.867,172.508 86.221,172.027 86.289 C 171.540 86.358,171.218 86.674,171.151 87.147 C 171.085 87.614,170.762 87.937,170.295 88.003 C 169.833 88.069,169.506 88.392,169.441 88.847 C 169.377 89.296,169.009 89.667,168.501 89.795 C 167.969 89.928,167.665 90.249,167.665 90.676 C 167.665 91.107,167.358 91.424,166.806 91.563 C 166.286 91.693,165.867 92.100,165.743 92.596 L 165.537 93.413 136.746 93.482 C 120.911 93.520,107.440 93.523,106.809 93.489 C 105.455 93.414,104.363 93.921,104.363 94.623 C 104.363 95.001,103.911 95.124,102.531 95.124 C 101.082 95.124,100.517 95.292,99.831 95.929 C 99.184 96.528,98.417 96.783,96.822 96.927 C 95.106 97.083,94.519 97.297,93.862 98.005 C 93.412 98.490,92.745 98.888,92.379 98.888 C 91.956 98.888,91.637 99.199,91.501 99.743 C 91.332 100.415,91.068 100.599,90.274 100.599 C 89.007 100.599,87.938 101.152,87.938 101.808 C 87.938 102.084,87.627 102.310,87.247 102.310 C 86.847 102.310,86.396 102.659,86.177 103.139 C 85.970 103.595,85.434 104.060,84.987 104.172 C 84.405 104.318,84.175 104.616,84.175 105.225 C 84.175 105.902,84.002 106.074,83.319 106.074 C 82.849 106.074,82.464 106.239,82.464 106.440 C 82.464 106.884,81.605 107.784,81.181 107.784 C 81.013 107.784,80.361 108.244,79.732 108.806 C 79.103 109.367,78.322 109.911,77.997 110.014 C 77.385 110.209,77.002 111.153,76.994 112.489 C 76.990 113.081,76.791 113.259,76.133 113.259 C 75.302 113.259,75.278 113.326,75.278 115.677 C 75.278 120.892,71.759 120.445,112.767 120.445 C 146.674 120.445,147.533 120.461,146.770 121.078 C 146.153 121.578,145.956 122.148,145.838 123.778 C 145.710 125.550,145.572 125.898,144.872 126.217 C 144.186 126.530,144.055 126.838,144.055 128.136 C 144.055 129.222,143.914 129.683,143.583 129.683 C 142.743 129.683,142.330 130.586,142.114 132.895 C 141.970 134.435,141.758 135.158,141.451 135.158 C 140.840 135.158,140.291 136.261,140.291 137.488 C 140.291 138.330,140.125 138.528,139.275 138.698 C 138.716 138.809,137.946 139.214,137.564 139.596 C 136.729 140.431,135.935 140.480,135.125 139.747 C 133.935 138.670,128.057 138.804,125.406 139.968 C 125.030 140.133,114.276 140.312,101.509 140.365 L 78.297 140.462 77.707 141.191 C 77.274 141.726,76.550 141.985,74.989 142.167 C 73.051 142.392,71.856 142.975,71.856 143.697 C 71.856 143.850,70.835 144.040,69.586 144.120 C 67.769 144.235,67.196 144.414,66.709 145.015 C 66.374 145.428,65.797 145.766,65.425 145.766 C 65.053 145.766,64.511 146.129,64.220 146.574 C 63.873 147.104,63.225 147.456,62.336 147.598 C 61.287 147.766,60.936 147.998,60.778 148.628 C 60.618 149.264,60.268 149.489,59.166 149.666 C 58.198 149.820,57.706 150.090,57.591 150.529 C 57.495 150.896,57.002 151.251,56.428 151.366 C 55.722 151.508,55.432 151.767,55.432 152.258 C 55.432 152.697,55.206 152.951,54.816 152.951 C 54.036 152.951,53.379 153.598,53.379 154.365 C 53.379 154.718,53.069 155.001,52.609 155.066 C 52.122 155.135,51.800 155.450,51.733 155.924 C 51.666 156.391,51.344 156.713,50.877 156.780 C 50.415 156.845,50.088 157.168,50.023 157.624 C 49.961 158.062,49.594 158.443,49.120 158.562 C 48.641 158.682,48.235 159.109,48.104 159.629 C 47.985 160.106,47.591 160.792,47.230 161.154 C 46.714 161.669,46.636 162.018,46.866 162.770 C 47.298 164.186,48.621 166.771,49.061 167.061 C 49.272 167.199,68.653 167.314,92.130 167.317 C 118.868 167.321,134.816 167.444,134.816 167.648 C 134.816 167.827,134.569 168.111,134.266 168.281 C 133.375 168.779,133.136 171.132,133.120 179.555 L 133.105 187.511 93.670 187.531 C 54.122 187.552,51.218 187.628,50.462 188.663 C 50.183 189.043,49.520 189.226,48.380 189.236 C 46.016 189.258,43.731 189.752,43.305 190.333 C 43.106 190.606,42.203 190.940,41.299 191.076 C 40.033 191.265,39.571 191.509,39.285 192.136 C 38.996 192.770,38.602 192.974,37.506 193.054 C 36.441 193.132,36.019 193.340,35.768 193.911 C 35.577 194.347,35.072 194.708,34.571 194.766 C 33.998 194.833,33.670 195.107,33.603 195.575 C 33.528 196.098,33.127 196.365,32.063 196.601 C 31.085 196.818,30.516 197.167,30.287 197.690 C 30.081 198.160,29.649 198.460,29.181 198.460 C 28.652 198.460,28.348 198.720,28.204 199.296 C 28.076 199.805,27.705 200.173,27.256 200.237 C 26.801 200.302,26.478 200.629,26.412 201.091 C 26.345 201.558,26.023 201.880,25.556 201.946 C 25.082 202.014,24.767 202.336,24.698 202.823 C 24.638 203.246,24.363 203.593,24.088 203.593 C 23.812 203.593,23.135 204.055,22.583 204.619 C 22.032 205.184,21.421 205.646,21.226 205.646 C 21.032 205.646,20.873 206.036,20.873 206.512 C 20.873 207.025,20.628 207.468,20.274 207.599 C 18.689 208.184,18.775 212.489,20.371 212.489 C 20.647 212.489,20.873 212.709,20.873 212.978 C 20.873 214.627,17.658 214.542,80.264 214.542 L 138.580 214.542 138.580 217.082 C 138.580 219.247,138.699 219.765,139.385 220.590 C 139.977 221.301,140.242 222.144,140.386 223.774 C 140.528 225.378,140.763 226.138,141.235 226.521 C 141.630 226.840,141.977 227.701,142.114 228.701 C 142.276 229.886,142.582 230.543,143.198 231.026 C 143.809 231.507,144.055 232.031,144.055 232.851 C 144.055 234.405,144.608 235.757,145.244 235.757 C 145.593 235.757,145.766 236.090,145.766 236.761 C 145.766 238.184,146.342 239.521,146.955 239.521 C 147.270 239.521,147.476 239.830,147.476 240.304 C 147.476 240.734,147.932 241.620,148.489 242.271 C 149.046 242.923,149.508 243.785,149.516 244.186 C 149.523 244.588,149.905 245.163,150.364 245.464 C 150.957 245.852,151.229 246.383,151.305 247.300 C 151.391 248.336,151.562 248.610,152.181 248.698 C 152.732 248.776,152.951 249.038,152.951 249.617 C 152.951 250.843,153.558 252.181,154.113 252.181 C 154.385 252.181,154.709 252.643,154.833 253.208 C 155.008 254.004,155.245 254.234,155.887 254.234 C 156.641 254.234,156.715 254.373,156.715 255.783 C 156.715 257.106,156.835 257.377,157.544 257.646 C 158.025 257.829,158.421 258.293,158.485 258.750 C 158.558 259.263,158.866 259.576,159.367 259.647 C 159.870 259.719,160.137 259.992,160.137 260.435 C 160.137 260.875,160.483 261.234,161.123 261.457 C 161.915 261.733,162.150 262.061,162.321 263.127 C 162.464 264.021,162.749 264.522,163.195 264.664 C 163.559 264.780,163.906 265.213,163.965 265.628 C 164.024 266.042,164.410 266.530,164.823 266.711 C 165.236 266.893,165.662 267.393,165.770 267.823 C 165.888 268.292,166.225 268.606,166.611 268.606 C 167.020 268.606,167.387 268.982,167.613 269.632 C 167.849 270.307,168.204 270.659,168.650 270.659 C 169.093 270.659,169.366 270.926,169.437 271.429 C 169.508 271.923,169.822 272.238,170.317 272.308 C 170.816 272.379,171.086 272.653,171.086 273.089 C 171.086 273.458,171.403 273.877,171.789 274.020 C 172.176 274.163,172.680 274.659,172.910 275.121 C 173.140 275.584,173.670 276.012,174.089 276.072 C 174.637 276.150,174.850 276.414,174.850 277.013 C 174.850 277.672,175.028 277.844,175.706 277.844 C 176.390 277.844,176.561 278.015,176.561 278.700 C 176.561 279.374,176.735 279.555,177.380 279.555 C 177.967 279.555,178.258 279.796,178.413 280.411 C 178.552 280.967,178.867 281.266,179.314 281.266 C 179.721 281.266,180.125 281.596,180.309 282.078 C 180.478 282.525,180.995 282.985,181.457 283.101 C 181.919 283.217,182.376 283.617,182.474 283.990 C 182.600 284.473,183.055 284.733,184.054 284.893 C 185.133 285.066,185.458 285.270,185.458 285.776 C 185.458 286.200,185.823 286.562,186.484 286.792 C 187.049 286.989,187.511 287.374,187.511 287.648 C 187.511 287.921,187.957 288.301,188.503 288.491 C 189.049 288.681,189.570 289.123,189.661 289.472 C 189.774 289.902,190.310 290.202,191.321 290.401 C 192.492 290.631,192.838 290.859,192.924 291.455 C 193.000 291.985,193.268 292.216,193.810 292.216 C 194.300 292.216,194.726 292.522,194.965 293.047 C 195.256 293.684,195.709 293.934,196.902 294.113 C 198.080 294.289,198.460 294.495,198.460 294.955 C 198.460 295.676,199.120 295.979,200.689 295.979 C 201.616 295.979,201.855 296.126,201.944 296.749 C 202.022 297.302,202.320 297.550,203.002 297.628 C 203.524 297.688,204.318 298.105,204.767 298.553 C 205.301 299.087,206.162 299.446,207.259 299.592 C 208.520 299.759,209.016 299.996,209.258 300.549 C 209.480 301.054,209.949 301.318,210.762 301.395 C 211.487 301.464,212.217 301.828,212.655 302.336 C 213.221 302.996,213.697 303.165,214.981 303.165 C 216.349 303.165,216.595 303.266,216.595 303.826 C 216.595 304.538,216.954 304.699,219.333 305.058 C 220.180 305.186,221.212 305.602,221.626 305.983 C 222.182 306.493,223.016 306.721,224.791 306.848 C 226.118 306.943,227.203 307.143,227.203 307.293 C 227.203 308.174,228.395 308.640,230.649 308.640 C 232.503 308.640,233.020 308.749,233.020 309.141 C 233.020 310.001,234.238 310.351,237.233 310.351 C 239.843 310.351,240.171 310.424,240.629 311.115 C 241.107 311.834,241.499 311.900,247.258 312.231 C 252.307 312.520,253.589 312.701,254.577 313.263 C 255.757 313.934,256.490 313.944,306.874 313.944 L 357.973 313.944 358.561 313.217 C 359.069 312.590,359.599 312.472,362.465 312.346 C 364.288 312.266,365.937 312.044,366.130 311.851 C 366.363 311.618,366.449 302.567,366.388 284.549 L 366.296 257.595 365.488 256.941 C 364.703 256.306,363.548 256.287,324.384 256.287 C 288.982 256.287,284.035 256.225,283.661 255.774 C 283.331 255.376,282.409 255.261,279.555 255.261 C 276.701 255.261,275.779 255.376,275.449 255.774 C 274.901 256.434,273.494 256.434,272.834 255.774 C 272.097 255.037,265.457 255.037,264.720 255.774 C 263.774 256.720,256.202 256.503,255.770 255.518 C 255.498 254.898,255.031 254.693,253.379 254.466 C 252.146 254.296,251.044 253.921,250.621 253.526 C 250.111 253.051,249.185 252.806,247.285 252.646 C 245.837 252.523,244.654 252.284,244.654 252.114 C 244.654 251.605,242.378 250.813,240.916 250.813 C 239.917 250.813,239.323 250.584,238.697 249.957 C 238.015 249.276,237.498 249.102,236.152 249.102 C 234.652 249.102,234.439 249.009,234.255 248.277 C 234.094 247.633,233.745 247.400,232.665 247.218 C 231.750 247.063,231.100 246.706,230.743 246.161 C 230.446 245.708,229.909 245.338,229.548 245.338 C 229.187 245.338,228.793 245.068,228.671 244.739 C 228.351 243.872,227.878 243.638,226.433 243.632 C 225.294 243.628,225.150 243.531,225.150 242.772 C 225.150 242.098,224.976 241.916,224.331 241.916 C 223.744 241.916,223.452 241.675,223.298 241.061 C 223.169 240.544,222.839 240.205,222.467 240.205 C 222.129 240.205,221.334 239.743,220.701 239.179 C 220.069 238.614,219.194 238.152,218.758 238.152 C 218.139 238.152,217.964 237.963,217.964 237.297 C 217.964 236.612,217.793 236.441,217.109 236.441 C 216.485 236.441,216.253 236.258,216.253 235.766 C 216.253 235.368,215.849 234.881,215.270 234.582 C 214.730 234.302,214.205 233.759,214.105 233.376 C 213.997 232.963,213.639 232.678,213.229 232.678 C 212.772 232.678,212.500 232.416,212.428 231.908 C 212.358 231.420,212.043 231.099,211.569 231.031 C 211.103 230.965,210.780 230.642,210.714 230.176 C 210.648 229.709,210.325 229.387,209.859 229.320 C 209.392 229.254,209.069 228.931,209.003 228.465 C 208.944 228.053,208.566 227.571,208.161 227.393 C 207.676 227.180,207.327 226.597,207.135 225.682 C 206.937 224.741,206.596 224.186,206.074 223.957 C 205.604 223.751,205.304 223.319,205.304 222.851 C 205.304 222.317,205.043 222.018,204.448 221.868 C 203.751 221.694,203.593 221.444,203.593 220.521 C 203.593 218.987,203.289 218.306,202.605 218.306 C 202.209 218.306,201.868 217.750,201.501 216.510 L 200.971 214.713 206.525 214.620 C 211.950 214.528,212.091 214.507,212.613 213.711 C 212.965 213.175,213.619 212.816,214.530 212.662 C 215.928 212.426,216.029 212.292,216.327 210.265 C 216.383 209.889,216.774 209.429,217.196 209.243 C 217.650 209.044,217.964 208.604,217.964 208.168 C 217.964 207.667,218.238 207.362,218.820 207.216 C 219.350 207.083,219.675 206.759,219.675 206.363 C 219.675 206.012,220.058 205.473,220.527 205.166 C 221.101 204.790,221.450 204.168,221.595 203.263 C 221.759 202.237,221.982 201.894,222.539 201.815 C 223.047 201.742,223.301 201.426,223.376 200.770 C 223.461 200.031,223.663 199.829,224.317 199.829 C 224.948 199.829,225.153 199.643,225.164 199.059 C 225.171 198.636,225.633 197.756,226.190 197.104 C 226.747 196.453,227.203 195.568,227.203 195.137 C 227.203 194.585,227.402 194.354,227.881 194.354 C 228.761 194.354,228.973 193.452,228.845 190.244 L 228.743 187.682 226.695 187.577 C 225.569 187.519,224.414 187.260,224.128 187.002 C 222.701 185.710,220.359 185.715,220.359 187.009 C 220.359 187.441,218.443 187.511,206.501 187.511 C 193.312 187.511,192.643 187.481,192.643 186.886 C 192.643 186.542,192.258 185.900,191.788 185.458 C 190.854 184.581,190.397 174.166,191.292 174.166 C 191.954 174.166,192.643 171.815,192.643 169.558 L 192.643 167.322 215.918 167.322 L 239.193 167.322 239.583 166.467 C 239.823 165.940,240.256 165.612,240.709 165.612 C 241.650 165.612,243.285 163.920,243.285 162.948 C 243.285 162.438,243.556 162.135,244.143 161.987 C 244.632 161.865,245.082 161.452,245.189 161.028 C 245.291 160.618,245.713 160.135,246.127 159.953 C 246.637 159.729,246.912 159.265,246.985 158.505 C 247.056 157.775,247.382 157.197,247.926 156.840 C 248.412 156.522,248.760 155.964,248.760 155.502 C 248.760 154.941,248.984 154.678,249.530 154.600 C 250.015 154.531,250.339 154.216,250.405 153.747 C 250.464 153.338,250.880 152.762,251.330 152.467 C 251.821 152.145,252.240 151.447,252.375 150.727 C 252.541 149.840,252.816 149.469,253.418 149.318 C 253.985 149.176,254.234 148.871,254.234 148.319 C 254.234 147.755,254.458 147.492,255.004 147.415 C 255.732 147.311,255.780 147.129,255.873 144.083 C 255.979 140.657,255.834 140.306,254.306 140.296 C 253.875 140.293,253.105 139.985,252.595 139.612 C 251.033 138.467,247.391 138.597,247.391 139.798 C 247.391 140.696,214.442 140.515,212.660 139.607 C 211.576 139.053,210.643 138.922,207.798 138.922 C 205.679 138.922,204.277 138.786,204.277 138.580 C 204.277 138.392,204.508 138.238,204.790 138.238 C 205.133 138.238,205.304 137.896,205.304 137.211 C 205.304 136.535,205.476 136.185,205.808 136.185 C 206.338 136.185,207.357 134.524,207.357 133.659 C 207.357 133.381,207.697 133.104,208.113 133.043 C 208.591 132.974,208.942 132.620,209.068 132.079 C 209.194 131.538,209.545 131.183,210.023 131.114 C 210.565 131.035,210.778 130.770,210.778 130.173 C 210.778 129.520,210.957 129.341,211.610 129.341 C 212.212 129.341,212.472 129.129,212.551 128.571 C 212.621 128.077,212.936 127.762,213.430 127.692 C 213.911 127.624,214.278 127.270,214.409 126.748 C 214.533 126.251,214.948 125.831,215.436 125.708 C 216.013 125.564,216.253 125.262,216.253 124.685 C 216.253 124.235,216.396 123.867,216.571 123.867 C 217.261 123.867,217.964 122.731,217.964 121.618 L 217.964 120.445 242.180 120.445 L 266.397 120.445 267.587 119.467 C 268.241 118.929,269.115 118.382,269.528 118.252 C 270.098 118.073,270.334 117.651,270.505 116.512 C 270.684 115.323,270.884 114.986,271.465 114.904 C 271.973 114.831,272.231 114.516,272.305 113.879 C 272.379 113.235,272.636 112.927,273.160 112.853 C 273.735 112.771,273.935 112.476,274.020 111.584 C 274.130 110.437,274.746 109.495,275.388 109.495 C 275.569 109.495,275.807 109.137,275.917 108.699 C 276.027 108.260,276.506 107.725,276.981 107.508 C 277.489 107.276,277.844 106.831,277.844 106.423 C 277.844 105.910,278.069 105.731,278.715 105.731 C 279.194 105.731,279.971 105.346,280.442 104.876 C 281.466 103.851,285.621 103.596,286.380 104.512 C 287.021 105.284,291.059 105.389,327.544 105.586 L 361.333 105.768 362.143 104.894 C 362.617 104.383,363.327 104.021,363.854 104.021 C 364.373 104.021,364.756 103.829,364.756 103.569 C 364.756 103.321,365.141 102.783,365.612 102.374 L 366.467 101.630 366.467 75.479 C 366.467 48.493,366.458 48.246,365.447 48.246 C 365.048 48.246,364.772 47.896,364.636 47.220 L 364.431 46.193 311.814 46.246 C 282.874 46.274,258.265 46.390,257.126 46.502 M363.388 50.742 L 364.243 51.175 364.243 75.627 L 364.243 100.079 363.045 100.665 C 361.936 101.207,358.792 101.251,320.200 101.267 C 274.838 101.285,276.747 101.204,275.867 103.136 C 275.683 103.539,275.215 104.249,274.826 104.714 C 273.465 106.342,272.196 107.962,271.856 108.505 C 270.797 110.199,269.410 112.139,268.876 112.674 C 268.539 113.010,268.263 113.482,268.263 113.723 C 268.263 113.963,267.710 114.650,267.033 115.249 L 265.802 116.339 173.597 116.339 C 110.692 116.339,81.182 116.226,80.730 115.985 C 80.064 115.628,79.793 114.286,80.388 114.286 C 80.563 114.286,80.815 113.939,80.948 113.516 C 81.191 112.740,83.376 110.339,86.227 107.716 C 86.697 107.284,87.482 106.699,87.970 106.416 C 90.231 105.108,91.174 104.487,91.786 103.905 C 92.149 103.559,92.962 103.061,93.591 102.798 C 94.220 102.535,94.830 102.166,94.947 101.977 C 95.064 101.789,96.036 101.379,97.109 101.068 C 98.181 100.756,99.367 100.302,99.743 100.059 C 100.120 99.816,101.198 99.428,102.139 99.196 C 103.080 98.965,104.199 98.550,104.626 98.275 C 106.228 97.241,115.735 96.868,140.975 96.846 C 165.791 96.824,165.732 96.827,168.349 95.499 C 168.820 95.260,169.897 94.220,170.744 93.188 C 173.283 90.094,177.896 85.577,184.227 79.989 C 184.810 79.474,185.592 78.782,185.965 78.449 C 186.337 78.116,186.885 77.690,187.181 77.502 C 189.837 75.816,191.275 74.795,191.275 74.597 C 191.275 74.468,191.691 74.171,192.201 73.939 C 192.710 73.707,193.335 73.221,193.589 72.858 C 193.843 72.495,194.261 72.198,194.518 72.198 C 194.776 72.198,195.423 71.831,195.956 71.382 C 196.490 70.933,197.464 70.317,198.121 70.013 C 199.562 69.346,201.739 68.132,202.908 67.346 C 203.379 67.029,204.187 66.666,204.705 66.539 C 205.222 66.411,205.646 66.172,205.646 66.006 C 205.646 65.682,211.185 62.960,211.843 62.960 C 212.060 62.960,212.718 62.671,213.304 62.317 C 213.891 61.963,214.987 61.480,215.740 61.243 C 216.493 61.006,217.517 60.525,218.017 60.175 C 218.516 59.825,219.138 59.538,219.399 59.538 C 219.659 59.538,220.482 59.223,221.228 58.837 C 221.973 58.452,223.562 57.906,224.758 57.624 C 225.954 57.342,227.263 56.899,227.667 56.640 C 228.070 56.382,229.363 55.984,230.539 55.756 C 231.715 55.529,232.678 55.221,232.678 55.072 C 232.678 54.706,234.523 54.148,236.612 53.882 C 237.553 53.762,239.179 53.380,240.225 53.032 C 241.271 52.684,243.504 52.292,245.187 52.160 C 246.870 52.029,248.939 51.691,249.786 51.409 C 252.572 50.482,257.311 50.399,310.180 50.354 C 351.780 50.319,362.708 50.398,363.388 50.742 M210.607 121.424 C 212.935 121.838,212.566 123.346,209.298 126.775 C 207.864 128.281,206.323 129.897,205.876 130.368 C 205.428 130.839,204.952 131.570,204.818 131.993 C 204.683 132.417,204.434 132.763,204.263 132.763 C 204.092 132.763,203.696 133.263,203.383 133.875 C 202.888 134.842,202.278 135.665,200.416 137.876 C 200.187 138.148,199.575 139.224,199.056 140.268 L 198.113 142.166 198.885 142.761 C 199.809 143.472,197.225 143.405,226.632 143.480 C 249.852 143.540,250.539 143.560,251.011 144.206 C 251.668 145.104,251.623 145.669,250.813 146.699 C 250.436 147.177,250.128 147.770,250.128 148.016 C 250.128 148.263,249.851 148.665,249.512 148.911 C 249.173 149.157,248.691 149.863,248.441 150.479 C 248.190 151.095,247.785 151.711,247.540 151.848 C 246.998 152.152,245.615 154.037,244.660 155.774 C 244.273 156.480,243.823 157.057,243.662 157.057 C 243.500 157.057,243.174 157.525,242.937 158.097 C 242.700 158.669,242.220 159.290,241.869 159.478 C 241.519 159.665,241.232 160.033,241.232 160.296 C 241.232 160.558,240.677 161.361,239.999 162.080 L 238.766 163.388 147.355 163.487 C 43.964 163.599,51.162 163.771,52.498 161.227 C 53.414 159.482,59.054 154.043,60.650 153.365 C 61.168 153.146,61.591 152.832,61.591 152.668 C 61.591 152.505,62.207 152.093,62.960 151.754 C 63.713 151.414,64.328 151.003,64.328 150.841 C 64.328 150.678,64.906 150.278,65.612 149.952 C 66.317 149.625,67.092 149.172,67.334 148.944 C 67.758 148.543,69.913 147.824,70.702 147.821 C 70.915 147.820,71.269 147.601,71.489 147.335 C 71.710 147.070,72.691 146.661,73.670 146.427 C 74.648 146.194,75.988 145.724,76.647 145.383 C 77.491 144.946,79.256 144.656,82.635 144.400 C 85.269 144.200,87.857 143.949,88.385 143.843 C 88.913 143.737,100.770 143.607,114.733 143.555 C 143.207 143.449,142.390 143.517,142.826 141.193 C 142.952 140.521,143.284 139.742,143.563 139.463 C 143.843 139.183,144.244 138.062,144.455 136.971 C 144.666 135.880,145.048 134.743,145.304 134.445 C 145.559 134.147,145.999 133.126,146.281 132.177 C 146.564 131.227,147.009 130.272,147.271 130.054 C 147.533 129.837,147.844 129.141,147.963 128.508 C 148.082 127.876,148.460 126.996,148.804 126.553 C 149.148 126.111,149.610 125.196,149.830 124.522 C 150.225 123.310,151.612 121.735,152.609 121.367 C 153.372 121.086,209.013 121.140,210.607 121.424 M187.938 169.107 C 188.474 169.721,188.537 170.687,188.537 178.262 C 188.537 192.628,186.239 191.053,207.520 191.275 L 223.936 191.446 224.266 192.386 C 224.541 193.167,224.470 193.443,223.847 194.024 C 223.434 194.409,223.097 194.923,223.097 195.168 C 223.097 195.653,221.760 197.576,220.274 199.227 C 219.756 199.802,219.333 200.479,219.333 200.732 C 219.333 200.985,219.025 201.384,218.648 201.619 C 218.272 201.854,217.964 202.226,217.964 202.445 C 217.964 202.812,216.501 204.821,214.995 206.521 C 214.652 206.909,214.116 207.770,213.804 208.435 C 212.601 210.997,221.482 210.778,118.790 210.778 C 26.922 210.778,25.259 210.759,24.582 209.663 C 24.141 208.951,28.551 203.957,31.756 201.538 C 32.378 201.069,33.379 200.299,33.981 199.829 C 35.120 198.938,35.773 198.498,37.426 197.509 C 37.967 197.185,38.814 196.594,39.307 196.195 C 39.801 195.796,40.744 195.352,41.403 195.208 C 42.062 195.065,43.127 194.665,43.770 194.321 C 44.413 193.976,45.799 193.518,46.850 193.303 C 47.900 193.088,48.928 192.775,49.134 192.609 C 50.328 191.643,54.831 191.521,94.098 191.393 C 136.724 191.254,135.811 191.288,136.908 189.791 C 137.023 189.633,137.115 185.550,137.112 180.716 C 137.106 171.732,137.315 169.942,138.479 168.975 C 139.821 167.861,186.961 167.986,187.938 169.107 M196.254 216.113 C 197.032 216.483,197.525 217.034,197.786 217.824 C 197.998 218.466,198.322 218.991,198.506 218.991 C 198.690 218.991,199.138 219.663,199.502 220.485 C 199.866 221.307,200.396 222.173,200.680 222.409 C 200.965 222.645,201.198 223.050,201.198 223.310 C 201.198 223.569,201.495 224.079,201.859 224.442 C 202.223 224.806,202.798 225.538,203.136 226.068 C 203.475 226.598,204.024 227.233,204.357 227.479 C 204.689 227.725,204.962 228.207,204.962 228.551 C 204.962 228.896,205.346 229.429,205.817 229.738 C 206.287 230.046,206.672 230.501,206.672 230.749 C 206.672 231.607,214.187 238.908,217.461 241.232 C 218.124 241.702,219.702 242.896,220.967 243.885 C 222.232 244.874,223.691 245.851,224.209 246.057 C 224.726 246.263,225.150 246.568,225.150 246.735 C 225.150 246.903,225.721 247.278,226.419 247.570 C 227.117 247.862,227.970 248.403,228.314 248.772 C 228.659 249.142,229.230 249.444,229.585 249.444 C 229.940 249.444,230.665 249.807,231.197 250.250 C 231.729 250.693,232.729 251.240,233.420 251.465 C 234.111 251.690,234.844 252.077,235.049 252.324 C 235.254 252.571,236.357 252.972,237.500 253.215 C 238.643 253.457,239.777 253.855,240.021 254.099 C 240.265 254.343,241.512 254.785,242.792 255.082 C 244.072 255.379,245.285 255.760,245.488 255.928 C 245.691 256.097,247.210 256.488,248.862 256.798 C 250.515 257.107,252.438 257.602,253.136 257.897 C 255.292 258.808,265.268 258.987,314.896 259.006 C 355.261 259.022,362.211 259.096,363.227 259.521 L 364.414 260.016 364.414 284.628 C 364.414 307.103,364.365 309.281,363.848 309.710 C 362.443 310.877,254.585 310.393,251.155 309.205 C 250.308 308.911,247.739 308.519,245.446 308.334 C 242.783 308.118,240.871 307.787,240.156 307.417 C 239.539 307.098,237.809 306.700,236.310 306.532 C 234.757 306.358,233.133 305.954,232.533 305.592 C 231.954 305.242,230.710 304.850,229.769 304.719 C 228.828 304.588,227.578 304.202,226.990 303.861 C 226.403 303.519,225.248 303.132,224.424 302.999 C 223.600 302.866,222.424 302.469,221.811 302.116 C 221.198 301.763,219.836 301.250,218.785 300.975 C 217.734 300.701,216.619 300.247,216.307 299.968 C 215.995 299.688,215.176 299.354,214.486 299.227 C 213.797 299.099,212.930 298.711,212.559 298.366 C 212.188 298.021,211.275 297.574,210.530 297.373 C 209.785 297.173,208.820 296.700,208.385 296.323 C 207.950 295.946,207.333 295.637,207.014 295.637 C 206.694 295.637,205.756 295.178,204.927 294.617 C 204.099 294.056,203.248 293.594,203.036 293.590 C 202.824 293.587,202.457 293.352,202.221 293.067 C 201.985 292.783,201.157 292.236,200.383 291.852 C 198.025 290.686,196.873 289.985,195.733 289.026 C 195.134 288.522,194.481 288.109,194.282 288.109 C 194.082 288.109,193.576 287.763,193.155 287.340 C 192.735 286.916,191.195 285.723,189.734 284.688 C 188.272 283.653,186.705 282.459,186.252 282.036 C 185.798 281.612,185.291 281.266,185.125 281.266 C 184.959 281.266,184.520 280.881,184.150 280.411 C 183.780 279.940,183.345 279.553,183.184 279.550 C 182.503 279.537,171.771 269.657,171.771 269.043 C 171.771 268.886,171.347 268.373,170.830 267.901 C 170.312 267.430,169.427 266.437,168.862 265.694 C 168.298 264.952,167.412 263.894,166.895 263.344 C 166.377 262.795,165.954 262.221,165.954 262.069 C 165.954 261.917,165.586 261.384,165.137 260.883 C 163.685 259.265,163.273 258.745,162.664 257.765 C 162.064 256.799,161.609 256.238,160.017 254.502 C 159.547 253.991,159.053 253.221,158.919 252.791 C 158.785 252.362,158.311 251.575,157.866 251.043 C 157.421 250.511,157.057 249.881,157.057 249.642 C 157.057 249.403,156.763 248.942,156.404 248.617 C 156.045 248.292,155.558 247.537,155.322 246.938 C 155.086 246.340,154.628 245.543,154.304 245.167 C 153.980 244.790,153.598 244.098,153.457 243.627 C 153.316 243.157,152.836 242.336,152.391 241.804 C 151.946 241.272,151.583 240.565,151.583 240.232 C 151.583 239.899,151.280 239.354,150.911 239.019 C 150.542 238.685,150.060 237.853,149.841 237.170 C 149.622 236.487,149.224 235.677,148.957 235.370 C 148.689 235.063,148.309 234.229,148.113 233.517 C 147.916 232.804,147.476 231.824,147.135 231.338 C 146.793 230.851,146.333 229.657,146.112 228.683 C 145.891 227.709,145.511 226.836,145.267 226.743 C 145.024 226.649,144.714 225.829,144.579 224.920 C 144.443 224.011,143.962 222.483,143.509 221.524 C 142.219 218.790,142.599 216.375,144.400 215.874 C 146.412 215.314,195.042 215.539,196.254 216.113 " stroke="none" fill="#969ea2" fill-rule="evenodd"></path><path id="path2" d="M254.405 50.680 C 251.200 50.945,247.004 51.976,249.102 51.983 C 249.572 51.985,250.881 51.729,252.010 51.415 C 253.878 50.896,258.910 50.833,307.784 50.723 C 363.046 50.598,363.810 50.614,364.199 51.931 C 364.335 52.390,364.359 52.372,364.306 51.848 C 364.145 50.267,365.589 50.307,310.180 50.353 C 281.386 50.377,256.287 50.524,254.405 50.680 M245.428 52.256 C 245.948 52.334,246.718 52.332,247.139 52.251 C 247.560 52.170,247.134 52.106,246.193 52.108 C 245.252 52.111,244.908 52.177,245.428 52.256 M240.376 52.966 C 239.376 53.300,238.916 53.586,239.270 53.655 C 239.602 53.720,240.526 53.536,241.323 53.246 C 242.120 52.956,243.157 52.657,243.627 52.582 C 244.237 52.485,244.138 52.438,243.285 52.420 C 242.626 52.406,241.317 52.652,240.376 52.966 M236.869 53.957 C 237.198 54.043,237.737 54.043,238.067 53.957 C 238.396 53.871,238.127 53.801,237.468 53.801 C 236.809 53.801,236.540 53.871,236.869 53.957 M233.618 54.461 C 233.101 54.650,232.678 54.946,232.678 55.118 C 232.678 55.522,233.133 55.521,233.550 55.117 C 233.729 54.943,234.414 54.649,235.073 54.463 C 236.033 54.192,236.101 54.124,235.415 54.121 C 234.944 54.119,234.136 54.272,233.618 54.461 M227.208 56.820 C 226.552 57.186,226.244 57.479,226.524 57.471 C 227.203 57.452,229.570 56.144,228.914 56.150 C 228.631 56.153,227.864 56.455,227.208 56.820 M221.557 58.690 C 220.616 59.153,219.639 59.533,219.386 59.535 C 219.132 59.537,218.516 59.825,218.017 60.175 C 217.517 60.525,216.493 61.006,215.740 61.243 C 214.987 61.480,213.891 61.963,213.304 62.317 C 212.718 62.671,212.060 62.960,211.843 62.960 C 211.079 62.960,205.646 65.709,205.646 66.096 C 205.646 66.345,205.863 66.302,206.245 65.978 C 206.574 65.697,207.382 65.258,208.041 65.001 C 208.700 64.745,209.701 64.258,210.265 63.920 C 210.830 63.581,211.524 63.304,211.808 63.303 C 212.091 63.303,213.015 62.938,213.861 62.493 C 214.706 62.048,216.014 61.490,216.766 61.252 C 217.519 61.015,218.366 60.628,218.648 60.393 C 218.931 60.159,219.778 59.771,220.530 59.531 C 222.227 58.991,224.465 57.823,223.776 57.838 C 223.496 57.844,222.498 58.227,221.557 58.690 M203.764 66.918 C 203.199 67.198,201.967 67.888,201.027 68.451 C 200.086 69.013,198.778 69.719,198.121 70.020 C 197.464 70.320,196.490 70.933,195.956 71.382 C 195.423 71.831,194.776 72.198,194.518 72.198 C 194.261 72.198,193.843 72.495,193.589 72.858 C 193.335 73.221,192.710 73.707,192.201 73.939 C 191.691 74.171,191.275 74.468,191.275 74.597 C 191.275 74.795,189.837 75.816,187.181 77.502 C 186.885 77.690,186.337 78.116,185.965 78.449 C 185.592 78.782,184.810 79.474,184.227 79.989 C 177.938 85.540,173.312 90.065,170.744 93.177 C 169.345 94.872,168.471 95.526,166.467 96.374 C 166.091 96.533,154.465 96.744,140.633 96.842 L 115.483 97.021 141.146 97.014 L 166.809 97.006 168.049 96.127 C 168.731 95.643,170.040 94.411,170.958 93.390 C 177.192 86.448,188.145 76.648,190.847 75.595 C 191.270 75.430,191.617 75.152,191.617 74.978 C 191.617 74.804,192.182 74.300,192.874 73.858 C 193.565 73.416,194.759 72.630,195.526 72.112 C 196.293 71.595,197.536 70.852,198.289 70.463 C 200.881 69.121,205.474 66.396,205.133 66.402 C 204.944 66.405,204.328 66.638,203.764 66.918 M111.805 97.425 C 112.417 97.501,113.417 97.501,114.029 97.425 C 114.641 97.349,114.140 97.287,112.917 97.287 C 111.694 97.287,111.193 97.349,111.805 97.425 M105.624 97.867 C 105.094 98.026,104.478 98.299,104.255 98.473 C 104.032 98.647,103.080 98.975,102.139 99.203 C 101.198 99.431,100.120 99.816,99.743 100.059 C 99.367 100.302,98.181 100.756,97.109 101.068 C 96.036 101.379,95.061 101.793,94.941 101.986 C 94.822 102.180,94.121 102.580,93.384 102.874 C 92.647 103.169,92.044 103.544,92.044 103.707 C 92.044 103.870,91.544 104.260,90.932 104.573 C 89.634 105.239,87.739 106.758,88.207 106.758 C 88.384 106.758,89.102 106.302,89.803 105.745 C 90.504 105.188,91.372 104.638,91.732 104.524 C 92.092 104.410,92.387 104.188,92.387 104.031 C 92.387 103.633,96.833 101.412,98.243 101.107 C 98.880 100.968,99.940 100.576,100.599 100.235 C 102.270 99.371,106.258 98.137,108.298 97.853 L 110.009 97.616 108.298 97.597 C 107.357 97.587,106.154 97.708,105.624 97.867 M364.072 99.490 C 364.072 100.856,362.280 100.912,319.428 100.879 L 278.358 100.847 277.074 101.612 C 276.369 102.033,275.791 102.501,275.791 102.653 C 275.791 102.926,274.002 105.278,272.813 106.569 C 272.475 106.935,271.967 107.657,271.685 108.173 C 271.403 108.689,270.595 109.890,269.889 110.843 C 269.184 111.796,268.737 112.575,268.897 112.575 C 269.148 112.575,269.929 111.502,271.761 108.641 C 272.189 107.972,273.416 106.401,274.826 104.714 C 275.215 104.249,275.683 103.539,275.867 103.136 C 276.747 101.203,274.844 101.283,320.072 101.283 C 356.017 101.283,361.756 101.215,362.809 100.775 C 364.061 100.252,364.637 99.682,364.277 99.321 C 364.164 99.208,364.072 99.284,364.072 99.490 M86.343 107.534 C 85.935 107.954,85.397 108.491,85.145 108.728 C 83.101 110.650,81.148 112.877,80.948 113.516 C 80.815 113.939,80.563 114.286,80.388 114.286 C 80.212 114.286,80.068 114.588,80.068 114.958 C 80.068 115.681,81.007 116.344,82.013 116.331 C 82.420 116.326,82.254 116.136,81.535 115.781 L 80.434 115.238 81.082 113.969 C 81.438 113.271,83.063 111.363,84.694 109.729 C 86.324 108.095,87.529 106.761,87.371 106.764 C 87.212 106.767,86.750 107.114,86.343 107.534 M266.907 114.786 C 266.281 115.432,265.368 116.023,264.878 116.098 L 263.986 116.236 264.908 116.287 C 265.811 116.338,268.644 114.210,268.228 113.794 C 268.128 113.694,267.533 114.140,266.907 114.786 M152.410 121.458 C 151.569 121.801,149.862 123.745,149.895 124.321 C 149.908 124.541,150.069 124.412,150.253 124.033 C 150.437 123.654,151.148 122.962,151.831 122.493 L 153.074 121.642 181.982 121.742 C 197.882 121.798,211.019 121.922,211.177 122.019 C 211.978 122.515,211.400 124.128,209.895 125.592 C 207.358 128.060,204.712 131.210,205.555 130.758 C 205.973 130.535,206.495 130.009,206.716 129.590 C 206.937 129.171,208.196 127.753,209.515 126.440 C 212.567 123.398,212.908 121.833,210.607 121.424 C 208.653 121.075,153.267 121.108,152.410 121.458 M149.557 125.164 C 149.542 125.406,149.229 126.022,148.861 126.532 C 148.494 127.042,148.107 127.921,148.003 128.486 L 147.812 129.512 148.243 128.486 C 148.480 127.921,148.958 127.041,149.305 126.529 C 149.652 126.018,149.857 125.402,149.760 125.161 C 149.617 124.806,149.578 124.806,149.557 125.164 M147.014 130.424 C 146.729 130.863,146.408 131.685,146.300 132.250 L 146.104 133.276 146.493 132.250 C 146.706 131.685,147.117 130.953,147.405 130.622 C 147.693 130.292,147.839 129.932,147.730 129.823 C 147.621 129.714,147.298 129.984,147.014 130.424 M203.935 132.632 C 203.464 133.278,202.271 134.880,201.283 136.192 C 199.540 138.506,198.806 139.798,200.152 138.181 C 200.518 137.742,201.267 136.843,201.816 136.185 C 202.364 135.526,203.070 134.487,203.383 133.875 C 203.696 133.263,204.086 132.763,204.249 132.763 C 204.536 132.763,205.074 131.732,204.884 131.548 C 204.833 131.498,204.405 131.986,203.935 132.632 M145.338 134.315 C 145.009 134.756,144.746 135.395,144.754 135.736 C 144.764 136.121,145.032 135.858,145.463 135.040 C 146.267 133.518,146.204 133.157,145.338 134.315 M144.082 138.666 C 144.067 138.995,143.900 139.264,143.711 139.264 C 143.522 139.264,143.176 139.981,142.942 140.857 C 142.214 143.579,143.641 143.441,114.628 143.593 C 100.607 143.666,88.135 143.839,86.912 143.976 C 85.689 144.113,97.210 144.178,112.516 144.118 C 144.399 143.995,141.808 144.272,143.470 140.820 C 143.996 139.730,144.354 138.664,144.267 138.452 C 144.180 138.240,144.097 138.336,144.082 138.666 M198.679 139.986 C 198.348 140.372,198.131 140.945,198.194 141.259 C 198.276 141.662,198.484 141.486,198.900 140.663 C 199.598 139.280,199.511 139.014,198.679 139.986 M198.052 142.563 C 198.851 144.056,198.822 144.054,225.050 144.142 C 253.699 144.238,251.775 144.014,250.230 147.067 C 249.792 147.932,249.243 148.775,249.011 148.940 C 248.696 149.163,248.713 149.206,249.077 149.107 C 249.346 149.035,249.725 148.677,249.919 148.312 C 250.113 147.946,250.548 147.230,250.884 146.720 C 251.624 145.601,251.650 145.080,251.011 144.206 C 250.539 143.559,249.845 143.540,225.196 143.493 L 199.866 143.444 198.782 142.671 C 197.800 141.973,197.731 141.962,198.052 142.563 M81.009 144.644 C 81.621 144.720,82.622 144.720,83.234 144.644 C 83.845 144.569,83.345 144.506,82.121 144.506 C 80.898 144.506,80.398 144.569,81.009 144.644 M76.642 145.373 C 75.986 145.722,74.648 146.197,73.670 146.430 C 72.691 146.662,71.690 147.099,71.446 147.400 C 71.058 147.876,71.089 147.910,71.685 147.661 C 73.012 147.107,77.857 145.377,78.871 145.095 L 79.897 144.809 78.866 144.774 C 78.298 144.755,77.298 145.024,76.642 145.373 M68.640 148.324 C 67.906 148.586,67.213 148.926,67.100 149.079 C 66.987 149.233,66.317 149.625,65.612 149.952 C 64.906 150.278,64.328 150.678,64.328 150.841 C 64.328 151.003,63.713 151.414,62.960 151.754 C 62.207 152.093,61.591 152.505,61.591 152.668 C 61.591 152.832,61.168 153.146,60.650 153.365 C 57.983 154.497,51.659 161.409,52.316 162.473 C 52.965 163.524,56.154 163.557,146.619 163.475 L 238.323 163.391 145.868 163.218 C 73.665 163.083,53.322 162.954,52.995 162.627 C 52.330 161.962,53.535 160.116,56.506 157.245 C 58.938 154.896,60.291 153.843,63.121 152.096 C 63.731 151.719,64.466 151.215,64.754 150.974 C 65.423 150.415,68.250 148.936,69.803 148.332 C 71.382 147.719,70.359 147.712,68.640 148.324 M248.417 149.788 C 248.417 149.994,248.018 150.636,247.530 151.216 C 246.943 151.914,246.831 152.198,247.201 152.056 C 247.823 151.817,248.920 149.918,248.614 149.612 C 248.506 149.504,248.417 149.583,248.417 149.788 M245.595 153.713 C 245.077 154.316,244.654 154.951,244.654 155.125 C 244.654 155.299,245.115 154.859,245.680 154.149 C 246.628 152.957,246.844 152.603,246.621 152.613 C 246.574 152.615,246.112 153.110,245.595 153.713 M243.572 156.710 C 241.025 159.959,241.053 159.915,241.805 159.512 C 242.191 159.306,242.700 158.669,242.937 158.097 C 243.174 157.525,243.498 157.057,243.657 157.057 C 243.815 157.057,244.110 156.749,244.311 156.373 C 244.845 155.375,244.492 155.536,243.572 156.710 M239.733 161.709 C 239.003 162.538,238.523 163.216,238.666 163.216 C 239.028 163.216,241.232 160.844,241.232 160.455 C 241.232 160.011,241.217 160.024,239.733 161.709 M153.177 168.349 L 138.861 168.520 138.218 169.314 C 137.390 170.338,137.140 171.744,137.296 174.508 L 137.422 176.732 137.488 174.058 C 137.557 171.252,137.869 170.310,139.058 169.316 C 139.729 168.755,141.360 168.713,163.153 168.703 C 187.497 168.691,187.600 168.697,188.193 170.168 C 188.405 170.695,188.500 170.750,188.516 170.354 C 188.599 168.209,184.482 167.975,153.177 168.349 M188.323 179.812 C 188.324 181.882,188.380 182.685,188.448 181.596 C 188.516 180.507,188.516 178.813,188.447 177.832 C 188.378 176.851,188.322 177.742,188.323 179.812 M136.986 180.496 C 136.988 182.002,137.048 182.575,137.120 181.770 C 137.192 180.965,137.191 179.734,137.118 179.033 C 137.044 178.332,136.985 178.991,136.986 180.496 M137.273 186.655 C 137.192 189.718,137.117 189.901,135.672 190.557 C 135.076 190.826,134.829 191.089,135.084 191.181 C 136.670 191.753,137.643 189.764,137.467 186.306 L 137.345 183.918 137.273 186.655 M189.516 190.602 C 189.960 190.972,190.651 191.275,191.051 191.275 C 191.609 191.275,191.481 191.115,190.501 190.590 C 188.889 189.726,188.471 189.731,189.516 190.602 M59.464 191.527 C 60.458 191.597,61.998 191.596,62.886 191.526 C 63.773 191.455,62.960 191.399,61.078 191.400 C 59.196 191.400,58.470 191.458,59.464 191.527 M109.593 191.528 C 110.682 191.596,112.376 191.595,113.357 191.526 C 114.338 191.458,113.447 191.402,111.377 191.403 C 109.307 191.403,108.504 191.460,109.593 191.528 M117.465 191.529 C 118.743 191.595,120.745 191.594,121.913 191.528 C 123.082 191.461,122.036 191.407,119.589 191.408 C 117.143 191.408,116.187 191.463,117.465 191.529 M128.400 191.510 C 128.730 191.597,129.269 191.597,129.598 191.510 C 129.927 191.424,129.658 191.354,128.999 191.354 C 128.340 191.354,128.071 191.424,128.400 191.510 M193.935 191.526 C 194.740 191.598,195.972 191.597,196.673 191.523 C 197.374 191.450,196.715 191.391,195.210 191.392 C 193.704 191.393,193.131 191.453,193.935 191.526 M221.457 191.575 C 223.879 191.846,224.413 192.285,223.650 193.375 C 222.862 194.500,222.966 194.845,223.847 194.024 C 225.341 192.632,224.387 191.455,221.721 191.401 L 219.504 191.357 221.457 191.575 M51.518 191.996 C 50.401 192.159,49.331 192.448,49.140 192.639 C 48.950 192.830,48.478 192.998,48.092 193.012 C 47.707 193.027,47.586 193.118,47.824 193.214 C 48.062 193.310,49.063 193.139,50.048 192.835 C 51.033 192.530,52.994 192.152,54.405 191.993 C 56.484 191.760,56.646 191.705,55.261 191.703 C 54.320 191.701,52.636 191.833,51.518 191.996 M45.509 193.561 C 45.227 193.659,44.451 194.013,43.785 194.346 C 43.118 194.680,42.041 195.069,41.389 195.211 C 40.738 195.353,39.801 195.796,39.307 196.195 C 38.814 196.594,37.967 197.185,37.426 197.509 C 35.773 198.498,35.120 198.938,33.981 199.829 C 33.379 200.299,32.378 201.069,31.756 201.538 C 30.284 202.649,25.071 207.913,24.634 208.730 C 24.284 209.383,24.958 210.436,25.725 210.436 C 25.921 210.436,25.723 210.146,25.285 209.792 L 24.489 209.147 27.043 206.496 C 28.448 205.038,30.522 203.099,31.651 202.188 C 32.780 201.276,33.943 200.334,34.234 200.094 C 34.731 199.686,37.175 198.047,39.521 196.550 C 40.086 196.190,41.471 195.566,42.601 195.164 C 46.232 193.871,47.407 193.357,46.707 193.370 C 46.330 193.376,45.791 193.462,45.509 193.561 M222.070 196.298 C 221.600 196.956,220.823 197.981,220.344 198.576 C 219.865 199.171,219.173 200.104,218.804 200.650 C 218.436 201.195,217.904 201.980,217.622 202.393 C 217.340 202.806,216.656 203.822,216.102 204.651 C 215.548 205.481,214.864 206.352,214.582 206.587 C 214.268 206.848,214.225 207.015,214.469 207.015 C 214.689 207.015,215.135 206.591,215.460 206.074 C 215.786 205.556,216.482 204.627,217.008 204.009 C 217.534 203.390,217.964 202.676,217.964 202.420 C 217.964 202.164,218.202 201.864,218.494 201.752 C 218.785 201.640,219.185 201.085,219.382 200.518 C 219.580 199.951,219.879 199.487,220.046 199.487 C 220.214 199.487,220.736 198.909,221.207 198.204 C 221.678 197.498,222.317 196.570,222.628 196.141 C 222.938 195.713,223.132 195.304,223.059 195.232 C 222.986 195.160,222.541 195.640,222.070 196.298 M212.569 209.420 C 211.955 209.979,211.537 210.436,211.641 210.436 C 212.057 210.436,213.470 209.338,213.647 208.876 C 213.898 208.224,213.867 208.239,212.569 209.420 M72.455 210.693 C 97.908 210.741,139.559 210.741,165.013 210.693 C 190.466 210.644,169.641 210.605,118.734 210.605 C 67.827 210.605,47.002 210.644,72.455 210.693 M144.400 215.874 C 142.679 216.353,142.194 218.919,143.386 221.228 C 143.771 221.973,144.230 223.122,144.407 223.781 C 144.719 224.947,144.723 224.939,144.556 223.512 C 144.462 222.705,144.080 221.476,143.707 220.780 C 142.907 219.288,142.840 218.010,143.514 217.088 C 143.987 216.441,144.660 216.424,170.234 216.424 L 196.468 216.424 197.122 217.232 C 197.482 217.676,197.776 217.880,197.776 217.684 C 197.776 217.169,196.773 216.245,195.819 215.882 C 194.864 215.520,145.702 215.512,144.400 215.874 M198.778 219.892 C 199.168 220.388,199.487 220.965,199.487 221.175 C 199.488 221.385,200.101 222.404,200.850 223.439 C 201.599 224.474,202.477 225.706,202.802 226.176 C 204.099 228.056,204.962 228.962,204.962 228.446 C 204.962 228.160,204.689 227.725,204.357 227.479 C 204.024 227.233,203.475 226.598,203.136 226.068 C 202.798 225.538,202.223 224.806,201.859 224.442 C 201.495 224.079,201.198 223.569,201.198 223.310 C 201.198 223.050,200.965 222.645,200.680 222.409 C 200.396 222.173,199.866 221.307,199.502 220.485 C 199.138 219.663,198.667 218.991,198.455 218.991 C 198.242 218.991,198.388 219.396,198.778 219.892 M144.740 225.759 C 144.740 226.189,144.970 226.629,145.252 226.737 C 145.535 226.845,145.778 227.187,145.793 227.496 C 145.807 227.805,145.892 227.882,145.980 227.666 C 146.069 227.450,145.826 226.758,145.441 226.126 C 144.820 225.107,144.742 225.066,144.740 225.759 M146.316 229.256 C 146.427 229.914,146.771 230.838,147.082 231.309 C 147.393 231.779,147.765 232.395,147.909 232.678 C 148.053 232.960,148.080 232.729,147.968 232.164 C 147.857 231.600,147.566 230.907,147.323 230.624 C 147.080 230.342,146.709 229.649,146.499 229.085 L 146.116 228.058 146.316 229.256 M206.531 231.312 C 208.436 233.817,210.109 235.524,213.570 238.494 C 217.116 241.537,217.453 241.803,218.365 242.279 C 218.803 242.508,219.393 242.901,219.675 243.152 C 221.612 244.877,225.603 247.733,226.076 247.733 C 226.189 247.733,226.787 248.118,227.404 248.589 C 228.747 249.613,229.179 249.700,228.314 248.772 C 227.970 248.403,227.117 247.862,226.419 247.570 C 225.721 247.278,225.150 246.903,225.150 246.735 C 225.150 246.568,224.726 246.263,224.209 246.057 C 223.691 245.851,222.232 244.874,220.967 243.885 C 219.702 242.896,218.124 241.702,217.461 241.232 C 214.165 238.893,207.170 232.104,206.652 230.742 C 206.493 230.324,206.043 229.810,205.652 229.601 C 205.180 229.348,205.476 229.924,206.531 231.312 M148.166 233.743 C 148.163 234.047,148.446 234.663,148.795 235.112 C 149.144 235.561,149.612 236.487,149.835 237.170 C 150.057 237.853,150.534 238.678,150.893 239.003 C 151.333 239.401,151.133 238.792,150.281 237.143 C 148.339 233.378,148.172 233.110,148.166 233.743 M151.604 240.272 C 151.592 240.591,151.963 241.284,152.427 241.812 C 152.892 242.340,153.277 242.598,153.283 242.386 C 153.289 242.174,153.045 241.794,152.742 241.542 C 152.439 241.290,152.063 240.771,151.908 240.388 C 151.683 239.834,151.622 239.810,151.604 240.272 M153.636 244.269 C 153.636 244.435,153.868 244.763,154.153 244.999 C 154.437 245.235,154.951 246.062,155.295 246.837 C 155.638 247.612,156.212 248.477,156.570 248.760 C 157.203 249.259,157.204 249.250,156.616 248.417 C 156.284 247.947,155.781 247.058,155.500 246.442 C 154.975 245.293,153.636 243.732,153.636 244.269 M157.057 249.714 C 157.057 250.177,158.471 251.909,158.679 251.701 C 158.775 251.605,158.449 251.046,157.955 250.459 C 157.461 249.872,157.057 249.536,157.057 249.714 M229.284 249.556 C 229.363 249.617,230.043 250.016,230.796 250.443 L 232.164 251.219 231.204 250.331 C 230.676 249.843,229.996 249.444,229.693 249.444 C 229.390 249.444,229.206 249.494,229.284 249.556 M233.642 252.019 C 234.455 252.522,235.200 252.853,235.297 252.755 C 235.531 252.521,234.098 251.629,233.020 251.337 C 232.458 251.186,232.672 251.420,233.642 252.019 M158.952 252.791 C 159.068 253.221,159.547 253.991,160.017 254.502 C 161.834 256.483,162.114 256.836,162.729 257.913 C 163.078 258.524,163.470 259.025,163.599 259.025 C 163.728 259.025,164.151 259.564,164.540 260.222 C 164.928 260.881,165.432 261.420,165.660 261.420 C 165.915 261.420,165.846 261.190,165.480 260.821 C 165.153 260.492,164.272 259.376,163.520 258.340 C 162.769 257.305,161.585 255.792,160.889 254.978 C 160.193 254.164,159.425 253.163,159.182 252.754 L 158.740 252.010 158.952 252.791 M237.297 253.495 C 238.238 253.847,239.277 254.251,239.607 254.393 C 239.964 254.546,240.205 254.502,240.205 254.284 C 240.205 253.937,238.877 253.481,236.612 253.051 C 236.048 252.943,236.356 253.143,237.297 253.495 M243.285 255.603 C 245.645 256.504,247.363 256.963,248.246 256.929 C 248.623 256.915,248.315 256.761,247.562 256.588 C 246.809 256.414,245.731 256.058,245.167 255.795 C 244.602 255.532,243.524 255.220,242.772 255.101 C 241.497 254.900,241.532 254.935,243.285 255.603 M250.813 257.626 C 251.848 258.007,253.003 258.317,253.379 258.316 C 254.457 258.312,251.976 257.338,250.337 257.121 C 248.967 256.939,248.980 256.953,250.813 257.626 M261.078 259.067 C 263.807 259.185,287.534 259.300,313.805 259.324 C 364.747 259.370,363.088 259.319,364.152 260.880 C 364.303 261.102,364.406 261.003,364.409 260.633 C 364.422 259.053,365.473 259.085,309.142 258.966 C 279.978 258.904,258.349 258.950,261.078 259.067 M165.954 262.048 C 165.954 262.211,166.377 262.799,166.895 263.354 C 168.300 264.860,170.051 267.036,170.056 267.283 C 170.058 267.403,170.483 267.778,171.001 268.117 C 171.622 268.524,171.209 267.869,169.786 266.189 C 166.530 262.346,165.954 261.723,165.954 262.048 M171.771 269.088 C 171.771 269.423,178.557 275.882,181.694 278.532 C 183.256 279.852,183.707 279.850,182.324 278.529 C 181.733 277.964,181.157 277.501,181.044 277.501 C 180.931 277.500,179.678 276.383,178.260 275.020 C 173.272 270.223,171.771 268.851,171.771 269.088 M183.747 279.768 C 183.747 280.151,184.841 281.266,185.216 281.266 C 185.336 281.266,185.785 281.590,186.215 281.986 C 187.794 283.440,191.961 286.393,191.585 285.790 C 191.371 285.448,190.791 284.906,190.295 284.586 C 188.508 283.431,186.985 282.299,186.301 281.618 C 185.918 281.236,185.426 280.924,185.208 280.924 C 184.990 280.924,184.572 280.582,184.279 280.163 C 183.986 279.745,183.747 279.567,183.747 279.768 M193.087 287.194 C 193.502 287.631,194.149 288.101,194.525 288.238 C 194.941 288.389,194.740 288.083,194.012 287.457 C 192.587 286.231,192.023 286.071,193.087 287.194 M196.039 289.261 C 196.495 289.757,197.015 290.163,197.193 290.163 C 197.652 290.163,196.773 289.170,195.922 288.729 C 195.286 288.399,195.299 288.456,196.039 289.261 M198.500 290.796 C 199.624 291.669,200.880 292.305,201.082 292.103 C 201.174 292.011,200.948 291.840,200.580 291.723 C 200.211 291.607,199.560 291.208,199.133 290.837 C 198.705 290.466,198.204 290.163,198.020 290.163 C 197.835 290.163,198.051 290.448,198.500 290.796 M202.053 292.900 C 202.394 293.276,202.802 293.584,202.962 293.584 C 203.121 293.584,202.943 293.276,202.566 292.900 C 202.190 292.524,201.781 292.216,201.658 292.216 C 201.535 292.216,201.712 292.524,202.053 292.900 M204.615 294.436 C 205.895 295.381,206.959 295.806,207.268 295.497 C 207.380 295.386,207.244 295.295,206.967 295.295 C 206.690 295.295,205.941 294.910,205.304 294.440 C 204.666 293.969,203.990 293.584,203.802 293.584 C 203.614 293.584,203.980 293.968,204.615 294.436 M208.372 296.311 C 209.248 297.072,210.386 297.512,210.690 297.208 C 210.801 297.097,210.699 297.006,210.462 297.006 C 210.225 297.006,209.639 296.698,209.161 296.322 C 208.035 295.436,207.352 295.427,208.372 296.311 M212.147 297.909 C 212.147 298.200,213.259 299.034,213.666 299.048 C 213.843 299.054,213.656 298.751,213.252 298.375 C 212.498 297.672,212.147 297.524,212.147 297.909 M216.548 300.097 C 216.992 300.467,217.608 300.769,217.916 300.769 C 218.250 300.768,218.024 300.491,217.357 300.084 C 215.932 299.215,215.498 299.222,216.548 300.097 M221.497 301.988 C 222.402 302.470,223.402 302.796,223.719 302.712 C 224.176 302.591,224.154 302.552,223.610 302.518 C 223.234 302.495,222.464 302.170,221.899 301.796 C 221.334 301.422,220.643 301.116,220.362 301.114 C 220.081 301.113,220.592 301.506,221.497 301.988 M226.176 303.327 C 226.176 303.689,228.315 304.565,228.851 304.423 C 229.281 304.310,229.242 304.261,228.699 304.231 C 228.298 304.209,227.779 303.961,227.545 303.678 C 227.152 303.204,226.176 302.954,226.176 303.327 M232.506 305.560 C 233.071 305.934,233.835 306.241,234.204 306.242 C 234.645 306.244,234.415 306.010,233.533 305.560 C 231.807 304.680,231.178 304.680,232.506 305.560 M239.815 307.279 C 240.635 307.651,241.559 307.950,241.868 307.944 C 242.658 307.928,239.843 306.611,239.008 306.606 C 238.601 306.604,238.928 306.876,239.815 307.279 M243.028 308.191 C 243.358 308.277,243.896 308.277,244.226 308.191 C 244.555 308.105,244.286 308.035,243.627 308.035 C 242.968 308.035,242.699 308.105,243.028 308.191 M248.760 308.616 C 249.607 308.772,250.837 309.072,251.495 309.283 C 252.152 309.494,253.153 309.656,253.719 309.643 C 255.478 309.604,252.035 308.677,249.444 308.492 C 247.544 308.357,247.445 308.375,248.760 308.616 M256.202 309.917 C 257.002 309.989,258.311 309.989,259.110 309.917 C 259.910 309.845,259.256 309.786,257.656 309.786 C 256.056 309.786,255.402 309.845,256.202 309.917 M268.520 310.256 C 269.132 310.332,270.133 310.332,270.744 310.256 C 271.356 310.180,270.855 310.118,269.632 310.118 C 268.409 310.118,267.908 310.180,268.520 310.256 M272.630 310.251 C 273.056 310.332,273.672 310.329,273.999 310.244 C 274.326 310.158,273.978 310.091,273.225 310.095 C 272.472 310.099,272.205 310.169,272.630 310.251 M275.535 310.244 C 275.864 310.330,276.403 310.330,276.732 310.244 C 277.062 310.158,276.792 310.088,276.133 310.088 C 275.475 310.088,275.205 310.158,275.535 310.244 M289.418 310.265 C 296.065 310.317,306.844 310.317,313.370 310.265 C 319.896 310.213,314.457 310.171,301.283 310.171 C 288.109 310.171,282.770 310.213,289.418 310.265 M336.635 310.265 C 340.270 310.320,346.121 310.320,349.638 310.265 C 353.154 310.209,350.180 310.164,343.028 310.164 C 335.877 310.164,333.000 310.209,336.635 310.265 M356.972 310.244 C 357.301 310.330,357.840 310.330,358.169 310.244 C 358.499 310.158,358.229 310.088,357.571 310.088 C 356.912 310.088,356.642 310.158,356.972 310.244 " stroke="none" fill="#adb4b5" fill-rule="evenodd"></path><path id="path3" d="M256.459 50.864 C 254.302 51.033,250.410 51.721,250.590 51.902 C 250.681 51.992,251.961 51.878,253.435 51.648 C 254.910 51.419,258.272 51.123,260.907 50.991 L 265.697 50.751 261.762 50.754 C 259.598 50.755,257.211 50.805,256.459 50.864 M361.677 50.887 C 361.959 50.992,362.613 51.291,363.131 51.553 C 363.648 51.814,364.072 51.885,364.072 51.710 C 364.072 51.536,363.587 51.224,362.994 51.017 C 361.922 50.644,360.697 50.522,361.677 50.887 M248.336 52.252 C 248.762 52.334,249.377 52.331,249.705 52.245 C 250.032 52.160,249.683 52.093,248.931 52.097 C 248.178 52.100,247.910 52.170,248.336 52.252 M244.910 52.594 C 245.334 52.675,246.027 52.675,246.450 52.594 C 246.873 52.512,246.527 52.446,245.680 52.446 C 244.833 52.446,244.487 52.512,244.910 52.594 M241.403 53.196 C 240.032 53.823,241.046 53.840,242.772 53.218 C 243.851 52.829,243.959 52.725,243.285 52.725 C 242.814 52.725,241.967 52.937,241.403 53.196 M236.527 54.299 C 236.856 54.385,237.395 54.385,237.725 54.299 C 238.054 54.213,237.784 54.143,237.126 54.143 C 236.467 54.143,236.198 54.213,236.527 54.299 M233.533 55.090 C 231.728 55.962,232.517 55.968,234.437 55.097 C 235.257 54.725,235.697 54.422,235.415 54.425 C 235.133 54.427,234.286 54.726,233.533 55.090 M228.229 56.777 C 227.571 57.123,226.149 57.589,225.070 57.811 C 223.991 58.033,223.027 58.347,222.928 58.508 C 222.828 58.670,221.940 59.062,220.954 59.381 C 219.968 59.700,218.936 60.174,218.660 60.434 C 218.384 60.695,219.462 60.356,221.055 59.681 C 222.649 59.006,224.866 58.231,225.983 57.958 C 227.100 57.686,228.178 57.335,228.378 57.178 C 228.579 57.021,229.204 56.730,229.769 56.531 C 230.492 56.277,230.593 56.167,230.111 56.158 C 229.735 56.152,228.888 56.430,228.229 56.777 M364.232 78.015 C 364.232 88.837,364.275 93.263,364.328 87.853 C 364.381 82.442,364.381 73.589,364.328 68.178 C 364.275 62.767,364.232 67.194,364.232 78.015 M214.919 61.947 C 214.091 62.322,213.482 62.698,213.565 62.781 C 213.648 62.864,214.479 62.558,215.412 62.101 C 217.450 61.103,217.053 60.979,214.919 61.947 M209.410 64.368 C 208.375 64.932,207.902 65.288,208.360 65.160 C 209.498 64.841,212.365 63.297,211.770 63.323 C 211.507 63.334,210.445 63.805,209.410 64.368 M206.513 65.679 C 206.340 65.958,203.684 67.497,198.345 70.409 C 197.561 70.836,196.293 71.606,195.526 72.120 C 194.759 72.634,193.579 73.407,192.904 73.840 C 192.230 74.272,191.586 74.864,191.474 75.156 C 191.362 75.449,192.003 75.085,192.898 74.349 C 194.446 73.076,196.399 71.830,199.219 70.317 C 205.612 66.886,208.030 65.355,207.055 65.355 C 206.867 65.355,206.623 65.501,206.513 65.679 M187.682 77.678 C 183.664 80.675,175.427 88.413,170.958 93.390 C 169.397 95.127,167.722 96.491,166.605 96.933 C 166.232 97.081,166.247 97.129,166.674 97.150 C 167.446 97.188,169.975 95.155,171.600 93.192 C 174.291 89.939,183.796 80.920,186.955 78.621 C 190.544 76.010,191.035 75.620,190.731 75.628 C 190.559 75.632,189.187 76.555,187.682 77.678 M127.741 97.434 C 134.860 97.485,146.408 97.485,153.404 97.434 C 160.401 97.382,154.577 97.340,140.462 97.340 C 126.347 97.340,120.623 97.382,127.741 97.434 M110.778 97.767 C 111.390 97.843,112.391 97.843,113.003 97.767 C 113.614 97.691,113.114 97.629,111.891 97.629 C 110.667 97.629,110.167 97.691,110.778 97.767 M105.389 98.546 C 103.768 99.226,103.969 99.496,105.624 98.859 C 106.153 98.656,107.203 98.365,107.956 98.213 L 109.324 97.936 108.127 97.918 C 107.468 97.908,106.236 98.190,105.389 98.546 M100.428 100.257 C 99.123 101.121,99.705 101.121,101.283 100.257 C 101.942 99.896,102.250 99.596,101.967 99.589 C 101.685 99.582,100.992 99.883,100.428 100.257 M362.703 99.914 C 362.247 100.209,362.247 100.246,362.703 100.246 C 362.985 100.246,363.447 100.097,363.730 99.914 C 364.186 99.620,364.186 99.583,363.730 99.583 C 363.447 99.583,362.985 99.732,362.703 99.914 M277.561 100.990 C 276.697 101.418,275.741 102.261,275.265 103.014 C 274.817 103.724,274.289 104.405,274.092 104.527 C 273.895 104.649,273.501 105.239,273.218 105.839 C 272.934 106.438,272.897 106.640,273.135 106.288 C 273.372 105.935,274.068 105.035,274.679 104.288 C 275.291 103.541,275.791 102.805,275.791 102.653 C 275.791 102.501,276.369 102.033,277.074 101.612 L 278.358 100.847 319.515 100.879 C 342.944 100.897,360.999 100.779,361.431 100.605 C 361.883 100.424,345.362 100.291,320.616 100.279 L 279.042 100.257 277.561 100.990 M95.637 102.130 C 93.855 103.227,94.297 103.233,96.354 102.139 C 97.239 101.668,97.748 101.284,97.485 101.285 C 97.221 101.286,96.390 101.666,95.637 102.130 M92.525 103.849 C 92.018 104.320,91.492 104.705,91.357 104.705 C 91.222 104.705,90.531 105.167,89.820 105.731 C 88.104 107.096,88.615 107.043,90.620 105.649 C 92.984 104.005,94.195 102.994,93.799 102.994 C 93.606 102.994,93.033 103.379,92.525 103.849 M84.694 109.729 C 81.131 113.300,80.116 114.963,81.117 115.589 C 82.026 116.156,82.395 116.101,81.596 115.517 C 80.482 114.702,83.310 110.813,87.270 107.715 C 87.920 107.206,88.273 106.783,88.055 106.774 C 87.837 106.765,86.324 108.095,84.694 109.729 M271.001 108.792 C 270.719 109.096,269.755 110.443,268.859 111.787 C 267.964 113.131,266.759 114.627,266.181 115.113 C 265.604 115.599,265.277 115.997,265.455 115.997 C 265.883 115.997,267.914 113.659,270.023 110.739 C 271.654 108.483,272.081 107.631,271.001 108.792 M127.688 116.253 C 152.656 116.302,193.614 116.302,218.706 116.253 C 243.799 116.205,223.370 116.165,173.311 116.165 C 123.251 116.165,102.721 116.205,127.688 116.253 M154.149 121.783 C 151.770 122.071,149.831 123.687,149.885 125.337 C 149.892 125.563,150.105 125.274,150.358 124.693 C 150.611 124.112,151.243 123.303,151.762 122.895 L 152.706 122.152 181.657 122.239 L 210.607 122.327 210.717 123.279 C 210.796 123.971,210.558 124.487,209.849 125.161 C 208.095 126.828,202.908 133.145,202.908 133.613 C 202.908 133.898,204.280 132.221,205.050 130.997 C 205.365 130.496,206.936 128.705,208.543 127.017 C 211.313 124.106,212.117 122.600,211.202 122.035 C 210.803 121.788,156.097 121.546,154.149 121.783 M148.937 127.032 C 148.546 127.531,147.765 129.744,147.924 129.902 C 147.983 129.962,148.355 129.244,148.751 128.307 C 149.486 126.567,149.529 126.275,148.937 127.032 M147.221 130.796 C 147.034 131.031,146.686 131.839,146.448 132.592 C 146.210 133.345,145.728 134.532,145.377 135.230 C 145.026 135.928,144.739 136.698,144.739 136.941 C 144.740 137.482,145.762 135.380,146.895 132.506 C 147.761 130.312,147.810 130.053,147.221 130.796 M202.018 134.902 C 200.762 136.352,199.145 138.540,199.145 138.790 C 199.145 138.927,198.890 139.321,198.578 139.665 C 198.267 140.009,198.164 140.291,198.349 140.291 C 198.535 140.291,198.904 139.867,199.170 139.350 C 199.436 138.832,200.390 137.447,201.289 136.270 C 202.913 134.146,203.296 133.427,202.018 134.902 M143.343 141.040 C 141.836 144.265,143.960 144.038,114.363 144.140 L 88.452 144.230 114.492 144.314 L 140.532 144.397 141.694 143.614 C 142.710 142.930,144.667 139.762,144.300 139.396 C 144.230 139.325,143.799 140.065,143.343 141.040 M197.776 142.637 C 197.776 144.278,196.850 144.219,224.076 144.318 L 249.404 144.410 250.081 145.270 C 250.864 146.265,251.343 145.927,250.597 144.906 C 250.109 144.239,249.603 144.224,224.836 144.134 L 199.573 144.042 198.674 143.209 C 198.180 142.751,197.776 142.494,197.776 142.637 M85.122 144.645 C 85.737 144.721,86.660 144.719,87.175 144.641 C 87.689 144.563,87.186 144.501,86.056 144.503 C 84.927 144.505,84.507 144.569,85.122 144.645 M78.871 145.075 C 77.525 145.423,75.330 146.419,75.870 146.437 C 76.101 146.444,76.910 146.202,77.667 145.899 C 78.424 145.596,79.852 145.231,80.839 145.086 C 82.467 144.849,82.507 144.824,81.266 144.817 C 80.513 144.813,79.435 144.929,78.871 145.075 M72.027 147.488 C 70.710 148.035,69.814 148.488,70.037 148.493 C 70.259 148.499,71.568 148.045,72.945 147.486 C 74.322 146.927,75.218 146.474,74.936 146.481 C 74.654 146.487,73.345 146.940,72.027 147.488 M248.799 148.702 C 248.401 149.208,248.075 149.744,248.075 149.893 C 248.075 150.043,247.878 150.368,247.636 150.617 C 247.395 150.866,246.825 151.608,246.370 152.267 C 245.914 152.926,245.381 153.578,245.183 153.716 C 244.934 153.891,244.935 153.969,245.186 153.973 C 245.543 153.978,247.447 151.538,248.386 149.872 C 248.652 149.401,249.113 148.836,249.412 148.617 C 249.711 148.397,249.858 148.119,249.739 148.000 C 249.620 147.880,249.196 148.196,248.799 148.702 M68.243 149.005 C 67.878 149.282,67.733 149.508,67.921 149.508 C 68.109 149.508,68.562 149.282,68.928 149.005 C 69.293 148.729,69.438 148.503,69.250 148.503 C 69.062 148.503,68.609 148.729,68.243 149.005 M64.943 150.772 C 64.636 151.080,63.851 151.657,63.199 152.056 C 56.525 156.133,50.516 162.917,53.625 162.864 C 54.184 162.854,54.187 162.826,53.663 162.520 C 52.789 162.010,53.713 160.419,56.438 157.742 C 59.033 155.192,59.061 155.171,63.055 152.482 C 64.696 151.377,66.039 150.414,66.039 150.343 C 66.039 150.031,65.456 150.260,64.943 150.772 M243.656 156.161 L 242.830 157.228 243.809 156.298 C 244.348 155.786,244.720 155.306,244.635 155.231 C 244.551 155.156,244.111 155.575,243.656 156.161 M241.915 158.512 C 241.411 159.200,241.329 159.439,241.698 159.138 C 242.259 158.683,243.108 157.399,242.848 157.399 C 242.783 157.399,242.363 157.900,241.915 158.512 M239.754 161.346 L 238.447 162.874 146.341 162.959 L 54.234 163.044 146.262 163.131 L 238.289 163.218 239.447 162.105 C 240.438 161.152,241.466 159.771,241.158 159.806 C 241.105 159.812,240.473 160.505,239.754 161.346 M138.837 169.557 C 137.730 170.584,137.462 171.470,137.642 173.509 C 137.763 174.874,137.782 174.826,137.836 173.028 C 137.887 171.322,138.040 170.889,138.896 170.034 L 139.896 169.033 162.933 169.038 C 175.604 169.041,186.307 169.133,186.717 169.243 C 187.739 169.517,187.951 170.114,188.222 173.482 L 188.456 176.390 188.411 173.195 C 188.341 168.205,191.059 168.691,163.261 168.691 L 139.771 168.691 138.837 169.557 M137.341 180.325 C 137.341 182.489,137.396 183.375,137.464 182.293 C 137.532 181.210,137.532 179.440,137.464 178.358 C 137.396 177.275,137.341 178.161,137.341 180.325 M187.802 178.700 C 187.736 179.500,187.774 180.847,187.887 181.694 C 188.045 182.880,188.104 182.547,188.144 180.240 C 188.198 177.093,188.006 176.228,187.802 178.700 M188.316 186.313 C 188.315 188.007,188.373 188.743,188.445 187.949 C 188.517 187.155,188.518 185.769,188.447 184.869 C 188.376 183.970,188.318 184.619,188.316 186.313 M137.651 187.682 C 137.654 188.623,137.720 188.967,137.799 188.447 C 137.878 187.927,137.876 187.157,137.794 186.736 C 137.713 186.315,137.649 186.741,137.651 187.682 M188.537 189.803 C 188.537 190.713,189.530 191.351,191.124 191.464 L 192.814 191.585 191.305 191.314 C 190.388 191.149,189.550 190.738,189.167 190.265 C 188.821 189.838,188.537 189.630,188.537 189.803 M136.376 190.772 C 135.932 191.108,134.739 191.297,132.783 191.342 L 129.855 191.409 132.250 191.532 C 135.161 191.683,136.739 191.424,136.996 190.752 C 137.231 190.140,137.211 190.141,136.376 190.772 M75.217 191.531 C 81.300 191.583,91.155 191.583,97.116 191.531 C 103.078 191.479,98.101 191.436,86.056 191.436 C 74.012 191.436,69.134 191.479,75.217 191.531 M126.347 191.510 C 126.677 191.597,127.216 191.597,127.545 191.510 C 127.874 191.424,127.605 191.354,126.946 191.354 C 126.287 191.354,126.018 191.424,126.347 191.510 M202.139 191.530 C 204.632 191.589,208.713 191.589,211.206 191.530 C 213.700 191.472,211.660 191.424,206.672 191.424 C 201.685 191.424,199.645 191.472,202.139 191.530 M57.742 191.864 C 58.353 191.940,59.354 191.940,59.966 191.864 C 60.577 191.788,60.077 191.726,58.854 191.726 C 57.630 191.726,57.130 191.788,57.742 191.864 M222.878 192.174 C 223.595 192.563,223.755 192.806,223.477 193.085 C 223.268 193.294,223.097 193.622,223.097 193.814 C 223.097 194.007,223.352 193.799,223.665 193.354 C 224.285 192.467,223.664 191.599,222.432 191.630 C 222.128 191.638,222.318 191.871,222.878 192.174 M53.978 192.200 C 54.401 192.282,55.094 192.282,55.518 192.200 C 55.941 192.119,55.595 192.052,54.748 192.052 C 53.901 192.052,53.554 192.119,53.978 192.200 M50.642 192.643 C 49.993 193.062,51.044 193.062,52.352 192.643 C 53.191 192.375,53.187 192.369,52.181 192.340 C 51.617 192.325,50.924 192.461,50.642 192.643 M44.825 194.354 C 43.255 195.214,43.670 195.218,45.557 194.362 C 46.378 193.989,46.818 193.688,46.536 193.692 C 46.253 193.695,45.483 193.994,44.825 194.354 M39.692 196.376 C 39.222 196.714,37.920 197.591,36.801 198.324 C 35.681 199.058,34.526 199.854,34.234 200.094 C 33.943 200.334,32.780 201.276,31.651 202.188 C 30.522 203.099,28.448 205.038,27.043 206.496 L 24.489 209.147 25.285 209.792 C 25.723 210.146,26.410 210.422,26.813 210.405 C 27.342 210.383,27.241 210.287,26.450 210.058 C 25.847 209.884,25.258 209.585,25.140 209.395 C 24.938 209.067,30.713 203.100,32.517 201.774 C 36.593 198.778,38.031 197.780,39.435 196.971 C 40.960 196.094,41.402 195.698,40.804 195.742 C 40.663 195.752,40.163 196.038,39.692 196.376 M220.211 198.375 C 219.471 199.320,219.412 199.479,219.986 198.977 C 220.672 198.378,221.577 197.092,221.312 197.092 C 221.259 197.092,220.763 197.669,220.211 198.375 M215.631 204.688 C 214.007 206.825,213.157 208.433,214.639 206.566 C 216.059 204.777,217.660 202.491,217.560 202.396 C 217.500 202.339,216.632 203.371,215.631 204.688 M213.174 208.370 C 211.989 209.654,211.764 210.182,212.835 209.164 C 213.473 208.558,213.925 208.007,213.840 207.938 C 213.756 207.869,213.456 208.063,213.174 208.370 M144.397 216.487 C 142.989 217.000,142.665 218.634,143.586 220.576 C 144.350 222.187,144.518 221.835,143.827 220.074 C 143.089 218.195,143.543 217.062,145.151 216.770 C 148.417 216.177,196.499 216.759,196.883 217.396 C 198.284 219.722,199.486 221.484,199.481 221.203 C 199.475 220.904,198.226 218.864,196.975 217.109 C 196.498 216.441,146.160 215.846,144.397 216.487 M144.769 224.226 C 144.733 224.974,145.739 227.002,146.011 226.730 C 146.118 226.623,146.019 226.310,145.791 226.035 C 145.563 225.760,145.246 225.102,145.087 224.573 C 144.914 223.998,144.786 223.858,144.769 224.226 M201.396 224.808 C 201.664 225.346,201.868 225.596,203.617 227.545 L 204.692 228.743 203.886 227.615 C 202.829 226.136,201.068 224.151,201.396 224.808 M146.156 227.545 C 146.156 227.827,146.288 228.366,146.450 228.743 C 146.635 229.174,146.744 229.237,146.744 228.914 C 146.744 228.631,146.612 228.092,146.450 227.716 C 146.265 227.285,146.156 227.221,146.156 227.545 M204.619 229.055 C 204.619 229.282,207.260 232.734,208.567 234.217 C 209.271 235.016,209.332 235.044,208.842 234.346 C 207.270 232.105,204.619 228.784,204.619 229.055 M148.315 233.164 C 148.442 233.713,148.844 234.543,149.209 235.006 C 150.085 236.120,150.044 235.922,148.977 233.875 C 148.349 232.671,148.153 232.460,148.315 233.164 M210.115 235.614 C 210.688 236.444,216.211 241.263,217.964 242.463 C 219.701 243.652,221.149 244.701,222.459 245.720 C 224.042 246.952,225.492 247.854,225.492 247.606 C 225.492 247.492,224.837 246.990,224.038 246.490 C 222.733 245.674,221.124 244.443,219.675 243.152 C 219.393 242.901,218.803 242.508,218.365 242.279 C 217.926 242.050,217.250 241.606,216.862 241.291 C 215.268 239.999,212.567 237.652,211.142 236.320 C 210.306 235.540,209.845 235.222,210.115 235.614 M149.872 236.208 C 149.872 236.624,152.310 241.057,152.823 241.574 C 153.103 241.856,152.614 240.778,151.735 239.179 C 150.078 236.163,149.872 235.834,149.872 236.208 M153.321 242.355 C 153.259 242.956,154.313 244.996,154.687 244.996 C 154.966 244.996,154.946 244.825,154.618 244.433 C 154.360 244.123,153.969 243.469,153.749 242.978 C 153.529 242.488,153.336 242.208,153.321 242.355 M155.346 246.176 C 155.346 246.572,157.100 249.346,158.023 250.410 L 158.818 251.326 158.154 250.299 C 157.789 249.735,157.008 248.515,156.418 247.589 C 155.829 246.663,155.346 246.027,155.346 246.176 M226.861 248.589 C 227.498 249.059,228.106 249.438,228.210 249.432 C 228.528 249.411,226.371 247.737,226.024 247.735 C 225.846 247.734,226.223 248.118,226.861 248.589 M229.427 250.072 C 231.800 251.517,235.911 253.548,236.413 253.523 C 236.711 253.508,236.493 253.331,235.928 253.129 C 235.364 252.928,233.572 252.016,231.946 251.103 C 229.123 249.518,227.277 248.762,229.427 250.072 M160.525 254.583 C 161.128 255.332,161.741 255.945,161.889 255.945 C 162.036 255.945,161.780 255.538,161.318 255.040 C 160.857 254.542,160.479 254.019,160.479 253.879 C 160.479 253.738,160.243 253.533,159.955 253.422 C 159.667 253.312,159.923 253.834,160.525 254.583 M238.323 254.253 C 239.076 254.609,239.923 254.901,240.205 254.902 C 240.488 254.903,240.047 254.599,239.227 254.227 C 238.407 253.855,237.560 253.563,237.345 253.578 C 237.130 253.593,237.571 253.897,238.323 254.253 M243.237 255.953 C 244.057 256.325,244.904 256.617,245.119 256.602 C 245.663 256.563,242.890 255.279,242.258 255.277 C 241.976 255.277,242.416 255.581,243.237 255.953 M162.752 257.251 C 163.102 257.876,163.679 258.646,164.036 258.962 C 164.941 259.766,164.286 258.600,163.014 257.143 L 162.117 256.116 162.752 257.251 M249.615 257.669 C 250.744 258.033,251.822 258.277,252.010 258.212 C 252.418 258.071,248.872 256.964,248.099 256.990 C 247.804 257.000,248.486 257.306,249.615 257.669 M260.736 259.411 C 262.712 259.529,286.079 259.644,312.662 259.667 L 360.996 259.709 362.677 260.520 C 363.602 260.966,364.288 261.147,364.202 260.922 C 363.607 259.374,364.838 259.410,309.324 259.300 C 280.624 259.243,258.760 259.293,260.736 259.411 M164.595 259.745 C 164.590 259.858,164.932 260.361,165.355 260.861 C 165.778 261.362,166.458 262.193,166.865 262.708 C 168.229 264.433,170.041 266.384,170.051 266.137 C 170.056 266.002,169.636 265.426,169.119 264.858 C 168.601 264.289,167.833 263.398,167.412 262.878 C 165.702 260.771,164.605 259.549,164.595 259.745 M364.187 267.579 C 364.187 268.991,364.247 269.568,364.321 268.862 C 364.395 268.157,364.395 267.002,364.321 266.296 C 364.247 265.590,364.187 266.168,364.187 267.579 M171.702 268.520 C 172.643 269.602,173.843 270.873,174.370 271.343 C 174.896 271.814,174.189 270.928,172.799 269.376 C 171.409 267.823,170.209 266.553,170.132 266.553 C 170.055 266.553,170.762 267.438,171.702 268.520 M364.154 290.402 C 364.078 307.653,364.030 308.972,363.473 309.297 C 363.144 309.489,363.048 309.650,363.260 309.656 C 364.371 309.686,364.420 308.794,364.328 290.295 L 364.237 271.856 364.154 290.402 M177.271 273.936 C 177.819 274.735,181.256 277.844,181.591 277.844 C 181.710 277.844,181.744 277.799,181.665 277.744 C 181.587 277.688,180.456 276.649,179.153 275.434 C 177.850 274.219,177.003 273.545,177.271 273.936 M182.036 278.179 C 182.036 278.362,182.459 278.783,182.977 279.114 C 183.494 279.444,184.119 279.987,184.365 280.319 C 184.611 280.652,184.963 280.924,185.147 280.924 C 185.441 280.924,184.602 280.068,182.635 278.363 C 182.305 278.078,182.036 277.995,182.036 278.179 M186.217 281.602 C 186.450 281.974,186.871 282.368,187.153 282.476 C 187.435 282.584,187.296 282.279,186.844 281.798 C 185.859 280.750,185.643 280.682,186.217 281.602 M189.564 283.979 C 190.222 284.571,191.075 285.357,191.458 285.727 C 191.841 286.096,192.269 286.399,192.410 286.399 C 192.736 286.399,190.965 284.769,189.490 283.710 L 188.366 282.904 189.564 283.979 M193.184 286.786 C 193.305 286.980,194.223 287.664,195.225 288.305 C 196.227 288.946,197.142 289.626,197.260 289.816 C 197.378 290.007,197.640 290.163,197.842 290.163 C 198.271 290.163,197.148 289.246,194.701 287.599 C 193.746 286.957,193.064 286.591,193.184 286.786 M202.224 292.521 C 202.224 292.954,203.574 293.718,203.850 293.441 C 203.960 293.332,203.880 293.242,203.674 293.242 C 203.468 293.242,203.058 293.000,202.762 292.704 C 202.466 292.409,202.224 292.326,202.224 292.521 M212.831 297.922 C 212.831 298.369,214.477 299.238,214.770 298.945 C 214.896 298.820,214.793 298.717,214.541 298.717 C 214.289 298.717,213.801 298.462,213.457 298.151 C 213.113 297.839,212.831 297.736,212.831 297.922 M216.595 299.563 C 216.595 299.764,218.511 300.770,218.888 300.769 C 219.039 300.768,218.658 300.460,218.041 300.084 C 216.896 299.386,216.595 299.278,216.595 299.563 M221.899 301.796 C 222.464 302.170,223.080 302.476,223.268 302.476 C 223.456 302.476,223.148 302.170,222.583 301.796 C 222.019 301.422,221.403 301.117,221.215 301.117 C 221.027 301.117,221.334 301.422,221.899 301.796 M233.171 305.400 C 233.536 305.676,233.989 305.902,234.177 305.902 C 234.365 305.902,234.220 305.676,233.855 305.400 C 233.490 305.124,233.037 304.898,232.849 304.898 C 232.660 304.898,232.805 305.124,233.171 305.400 M241.061 307.238 C 241.814 307.620,242.737 307.931,243.114 307.929 C 243.504 307.927,243.209 307.701,242.429 307.405 C 240.230 306.568,239.583 306.489,241.061 307.238 M245.423 308.201 C 245.941 308.279,246.788 308.279,247.305 308.201 C 247.823 308.122,247.399 308.058,246.364 308.058 C 245.329 308.058,244.906 308.122,245.423 308.201 M250.642 308.522 C 251.018 308.602,252.254 308.906,253.388 309.197 C 254.522 309.488,255.908 309.659,256.468 309.577 C 257.445 309.433,257.437 309.425,256.287 309.372 C 255.629 309.342,254.334 309.088,253.410 308.807 C 252.486 308.527,251.331 308.316,250.844 308.337 C 250.164 308.368,250.117 308.411,250.642 308.522 M261.858 309.918 C 262.758 309.989,264.143 309.988,264.938 309.916 C 265.732 309.845,264.996 309.787,263.302 309.788 C 261.608 309.789,260.958 309.848,261.858 309.918 " stroke="none" fill="#bcbcc4" fill-rule="evenodd"></path><path id="path4" d="M260.736 51.002 C 258.007 51.142,254.311 51.493,252.524 51.783 C 250.736 52.073,248.118 52.416,246.707 52.546 C 245.295 52.675,243.524 52.986,242.771 53.236 C 242.017 53.486,239.982 53.920,238.249 54.201 C 236.516 54.481,234.767 54.887,234.363 55.103 C 233.959 55.320,232.532 55.800,231.193 56.171 C 229.854 56.543,228.590 56.985,228.386 57.155 C 228.181 57.324,227.100 57.686,225.983 57.958 C 224.866 58.231,222.643 59.015,221.044 59.702 C 219.444 60.389,217.442 61.235,216.595 61.582 C 215.749 61.928,214.594 62.456,214.029 62.755 C 213.464 63.053,212.861 63.299,212.687 63.300 C 212.370 63.302,208.314 65.135,207.357 65.709 C 206.277 66.357,200.435 69.664,199.219 70.317 C 196.553 71.747,194.464 73.067,192.750 74.405 C 191.774 75.168,190.465 76.140,189.842 76.565 C 184.688 80.085,178.957 85.320,170.527 94.207 C 167.163 97.753,169.331 97.514,140.462 97.523 C 109.664 97.532,106.718 97.757,100.599 100.562 C 99.752 100.950,98.844 101.272,98.582 101.276 C 97.743 101.289,93.312 103.648,91.189 105.211 C 90.060 106.043,89.011 106.731,88.859 106.741 C 87.792 106.807,81.724 112.842,81.263 114.294 C 80.692 116.096,75.310 115.997,173.692 115.997 L 265.131 115.997 266.181 115.113 C 266.759 114.627,267.964 113.131,268.859 111.787 C 269.755 110.443,270.757 109.070,271.086 108.735 C 271.416 108.401,271.685 107.984,271.685 107.809 C 271.685 107.634,271.940 107.236,272.253 106.924 C 272.858 106.319,273.877 104.965,275.247 102.949 C 275.711 102.266,276.765 101.381,277.589 100.982 L 279.087 100.257 320.537 100.257 C 360.238 100.257,362.298 100.216,363.980 99.395 C 364.052 99.360,364.167 54.650,364.100 52.763 C 364.079 52.182,363.693 51.805,362.618 51.317 C 361.080 50.619,273.514 50.348,260.736 51.002 M361.932 52.438 C 362.642 53.200,362.651 53.438,362.800 75.891 L 362.951 98.573 362.238 99.073 C 361.622 99.504,355.822 99.572,319.764 99.572 L 278.003 99.572 276.769 100.411 C 276.090 100.872,274.630 102.444,273.525 103.904 C 271.355 106.769,271.346 106.782,268.729 110.644 C 267.761 112.072,266.461 113.668,265.840 114.191 L 264.711 115.141 175.555 115.222 C 78.866 115.310,82.634 115.359,82.975 114.002 C 83.422 112.220,88.092 107.667,90.334 106.828 C 90.616 106.722,91.540 106.111,92.387 105.471 C 93.994 104.255,98.026 102.258,99.747 101.826 C 100.296 101.688,101.420 101.268,102.243 100.893 C 103.066 100.518,105.535 99.813,107.730 99.326 L 111.719 98.440 139.649 98.236 L 167.579 98.033 168.852 97.126 C 169.552 96.628,171.073 95.088,172.231 93.703 C 174.488 91.005,175.315 90.165,179.508 86.315 C 185.894 80.450,185.322 80.926,190.591 77.075 C 195.443 73.529,196.464 72.873,201.352 70.166 C 204.141 68.622,206.979 67.010,207.659 66.584 C 208.340 66.158,209.633 65.530,210.533 65.189 C 211.433 64.848,212.251 64.438,212.350 64.278 C 212.449 64.117,212.774 63.986,213.073 63.986 C 213.372 63.986,215.480 63.151,217.758 62.131 C 220.035 61.110,223.747 59.664,226.005 58.916 C 228.263 58.169,230.496 57.405,230.967 57.219 C 236.533 55.020,249.479 52.740,260.359 52.043 C 262.730 51.892,286.393 51.745,312.943 51.718 L 361.215 51.668 361.932 52.438 M151.622 123.095 C 150.756 123.910,146.450 132.707,146.450 133.661 C 146.450 133.831,146.139 134.550,145.760 135.258 C 145.381 135.966,144.907 137.273,144.707 138.161 C 144.154 140.627,142.983 142.747,141.694 143.614 L 140.532 144.397 115.176 144.400 C 86.252 144.404,81.649 144.611,76.934 146.122 C 69.262 148.581,65.235 150.619,59.387 155.004 C 55.727 157.748,52.586 161.925,53.724 162.534 C 54.142 162.757,85.974 162.874,146.388 162.874 L 238.415 162.874 239.567 161.573 C 240.873 160.097,243.900 155.958,244.618 154.666 C 244.880 154.193,245.196 153.730,245.319 153.636 C 245.441 153.541,245.915 152.926,246.372 152.267 C 246.828 151.608,247.324 150.915,247.473 150.727 C 249.883 147.693,250.680 145.879,249.954 145.077 C 249.366 144.428,248.644 144.407,224.048 144.318 C 199.454 144.228,198.733 144.207,198.261 143.562 C 197.568 142.613,197.662 140.870,198.460 139.855 C 198.837 139.377,199.145 138.896,199.145 138.786 C 199.145 138.677,199.876 137.646,200.770 136.496 C 201.664 135.345,202.626 134.057,202.908 133.634 C 203.191 133.211,203.720 132.419,204.085 131.873 C 204.899 130.656,208.534 126.429,209.857 125.161 C 210.558 124.489,210.796 123.968,210.717 123.279 L 210.607 122.327 181.616 122.239 L 152.624 122.152 151.622 123.095 M209.346 123.618 C 209.618 123.946,209.115 124.691,207.324 126.612 C 206.013 128.019,204.223 130.248,203.345 131.565 C 202.468 132.883,201.651 134.038,201.530 134.132 C 199.181 135.954,196.635 141.252,197.153 143.242 C 197.704 145.362,196.248 145.250,223.676 145.283 C 239.565 145.302,248.909 145.436,249.121 145.648 C 249.508 146.035,248.128 148.864,246.893 150.214 C 246.463 150.684,245.552 151.916,244.870 152.951 C 244.188 153.986,243.436 155.057,243.200 155.332 C 242.965 155.606,242.136 156.793,241.359 157.970 C 240.583 159.147,239.437 160.540,238.813 161.065 L 237.679 162.019 146.470 162.019 L 55.261 162.019 55.146 161.203 C 54.944 159.775,58.541 156.525,65.129 152.185 C 67.053 150.917,70.255 149.399,72.541 148.670 C 73.576 148.340,74.589 147.940,74.792 147.780 C 75.340 147.349,81.934 145.857,84.688 145.540 C 86.005 145.389,98.246 145.304,111.891 145.353 C 145.091 145.471,143.224 145.767,144.994 140.095 C 146.675 134.705,150.759 125.322,152.020 123.952 L 152.728 123.182 180.856 123.182 C 203.231 123.182,209.058 123.271,209.346 123.618 M138.934 169.996 C 137.757 171.173,137.328 175.885,137.656 184.036 C 137.872 189.393,137.517 191.020,136.049 191.414 C 135.653 191.521,118.992 191.610,99.023 191.612 C 55.638 191.618,51.495 191.863,44.311 194.852 C 43.182 195.322,42.076 195.710,41.853 195.715 C 41.119 195.729,37.877 197.834,32.517 201.774 C 29.485 204.003,24.848 209.152,25.466 209.604 C 26.622 210.450,28.439 210.464,120.193 210.365 L 211.472 210.265 212.665 208.963 C 213.321 208.247,213.858 207.515,213.858 207.336 C 213.858 207.158,214.666 205.938,215.654 204.627 C 216.642 203.315,217.836 201.695,218.306 201.027 C 218.777 200.358,219.970 198.738,220.958 197.426 C 221.946 196.115,222.755 194.925,222.757 194.783 C 222.758 194.641,222.980 194.101,223.250 193.583 C 224.240 191.686,223.638 191.617,206.198 191.617 C 189.433 191.617,189.133 191.587,188.601 189.842 C 187.971 187.772,187.721 181.298,188.053 175.643 C 188.322 171.055,188.015 169.591,186.713 169.242 C 186.305 169.132,175.604 169.041,162.933 169.038 L 139.896 169.033 138.934 169.996 M186.501 170.582 C 187.731 171.218,187.840 172.788,186.944 176.961 C 186.454 179.241,186.436 179.918,186.814 181.930 C 187.055 183.212,187.356 185.606,187.482 187.250 C 187.655 189.479,187.893 190.480,188.418 191.185 L 189.124 192.130 205.682 192.316 C 214.790 192.418,222.253 192.533,222.268 192.572 C 222.427 193.003,221.856 194.948,221.491 195.215 C 221.229 195.407,220.829 195.889,220.602 196.286 C 220.374 196.684,219.559 197.836,218.789 198.847 C 218.020 199.857,217.208 201.027,216.985 201.447 C 216.762 201.866,215.813 203.252,214.876 204.526 C 213.939 205.801,212.692 207.498,212.106 208.298 L 211.041 209.752 119.122 209.728 C 68.566 209.715,26.926 209.594,26.587 209.461 C 25.232 208.926,34.944 200.401,40.034 197.656 C 40.881 197.200,42.806 196.405,44.311 195.891 C 45.817 195.376,47.206 194.830,47.398 194.678 C 47.590 194.526,49.512 194.142,51.668 193.826 C 53.825 193.509,55.978 193.077,56.452 192.864 C 57.072 192.587,68.406 192.452,96.835 192.385 C 124.105 192.320,136.578 192.178,137.073 191.925 C 138.647 191.119,138.981 189.395,138.534 184.380 C 138.032 178.756,138.715 171.308,139.805 170.511 C 140.795 169.787,185.095 169.855,186.501 170.582 M144.493 216.940 C 143.488 217.350,143.207 218.621,143.805 220.054 C 144.071 220.692,144.485 222.062,144.724 223.097 C 144.963 224.132,145.349 225.287,145.581 225.663 C 145.814 226.039,146.194 226.963,146.426 227.716 C 146.859 229.116,147.106 229.682,149.500 234.731 C 151.395 238.728,155.556 246.288,157.410 249.102 C 157.967 249.949,158.671 251.180,158.974 251.839 C 159.276 252.498,159.777 253.289,160.087 253.597 C 160.937 254.443,162.845 256.869,165.511 260.496 C 166.037 261.211,166.852 262.248,167.322 262.801 C 167.793 263.355,168.526 264.232,168.951 264.752 C 172.441 269.020,174.245 270.953,177.498 273.916 C 179.560 275.794,181.771 277.750,182.412 278.262 C 183.052 278.774,183.961 279.509,184.431 279.896 C 185.930 281.128,188.114 282.779,189.415 283.661 C 190.108 284.132,191.003 284.833,191.403 285.220 C 192.052 285.847,194.242 287.385,198.573 290.252 C 199.358 290.771,200.577 291.449,201.283 291.758 C 201.989 292.067,202.566 292.427,202.566 292.558 C 202.566 292.689,203.219 293.089,204.018 293.447 C 204.816 293.805,205.740 294.367,206.071 294.696 C 206.402 295.026,206.906 295.295,207.192 295.295 C 207.478 295.295,208.577 295.757,209.635 296.322 C 210.693 296.886,211.748 297.348,211.978 297.348 C 212.208 297.348,212.770 297.641,213.225 298.000 C 213.681 298.358,214.704 298.826,215.501 299.041 C 216.297 299.255,217.446 299.717,218.055 300.067 C 218.664 300.417,219.701 300.812,220.359 300.945 C 221.018 301.077,222.019 301.458,222.583 301.792 C 223.148 302.125,224.226 302.507,224.979 302.641 C 225.731 302.775,227.007 303.185,227.813 303.552 C 228.619 303.919,230.144 304.379,231.203 304.575 C 232.261 304.770,233.465 305.152,233.877 305.422 C 234.290 305.693,235.998 306.087,237.673 306.298 C 239.348 306.509,241.168 306.908,241.717 307.186 C 242.301 307.481,244.856 307.872,247.876 308.129 C 250.714 308.371,253.499 308.750,254.063 308.971 C 256.085 309.765,269.462 309.990,314.799 309.991 C 357.630 309.992,362.969 309.894,363.746 309.094 C 363.897 308.938,364.065 298.109,364.118 285.030 L 364.216 261.249 362.634 260.496 L 361.052 259.744 309.610 259.617 C 255.551 259.485,254.430 259.453,250.591 257.974 C 250.054 257.767,248.383 257.309,246.878 256.955 C 245.372 256.602,242.601 255.761,240.719 255.087 C 238.837 254.413,236.774 253.701,236.134 253.505 C 233.532 252.706,225.063 247.706,220.530 244.292 C 219.778 243.725,218.623 242.897,217.964 242.452 C 213.682 239.559,204.619 230.450,204.619 229.040 C 204.619 228.859,203.526 227.467,202.101 225.834 C 201.854 225.552,201.060 224.320,200.335 223.097 C 199.610 221.873,198.622 220.235,198.140 219.456 C 197.657 218.677,197.092 217.753,196.883 217.403 C 196.461 216.695,146.182 216.250,144.493 216.940 M196.017 217.927 C 196.495 218.230,197.456 219.715,198.920 222.416 C 199.381 223.265,200.351 224.759,201.076 225.737 C 201.802 226.715,203.242 228.714,204.277 230.179 C 207.097 234.172,213.736 240.623,218.330 243.834 C 219.379 244.567,221.219 245.898,222.419 246.792 C 223.620 247.686,224.718 248.417,224.859 248.417 C 225.000 248.417,225.778 248.841,226.587 249.358 C 229.872 251.459,233.339 253.391,234.403 253.713 C 234.865 253.854,235.706 254.179,236.270 254.436 C 237.867 255.163,242.215 256.626,244.482 257.199 C 245.612 257.484,247.382 258.008,248.417 258.364 C 249.453 258.719,251.146 259.103,252.181 259.218 C 253.216 259.332,254.756 259.632,255.603 259.883 C 258.232 260.664,261.925 260.719,312.280 260.727 C 359.988 260.735,361.280 260.753,362.066 261.390 L 362.874 262.044 362.818 285.389 C 362.773 304.450,362.679 308.788,362.305 309.029 C 361.328 309.661,260.198 309.166,256.972 308.514 C 255.372 308.191,251.831 307.806,249.102 307.658 C 245.484 307.462,243.835 307.230,243.012 306.800 C 242.391 306.476,240.584 306.063,238.996 305.882 C 237.408 305.702,235.529 305.262,234.821 304.906 C 234.112 304.549,232.763 304.152,231.822 304.024 C 230.881 303.895,229.649 303.508,229.085 303.165 C 228.520 302.821,227.190 302.381,226.130 302.187 C 225.070 301.993,223.684 301.518,223.050 301.132 C 222.417 300.746,221.585 300.430,221.202 300.429 C 220.818 300.428,219.894 300.108,219.148 299.717 C 218.403 299.326,217.027 298.770,216.090 298.483 C 215.153 298.195,214.016 297.668,213.563 297.312 C 213.110 296.955,212.545 296.664,212.307 296.664 C 212.069 296.664,211.049 296.229,210.040 295.699 C 209.030 295.168,207.898 294.628,207.524 294.500 C 207.150 294.372,205.458 293.424,203.764 292.393 C 202.070 291.362,200.036 290.203,199.244 289.818 C 198.452 289.432,197.716 288.973,197.607 288.798 C 197.499 288.623,196.304 287.742,194.951 286.840 C 193.599 285.939,192.241 284.970,191.935 284.688 C 190.840 283.679,189.703 282.811,187.511 281.311 C 186.287 280.473,185.133 279.598,184.944 279.365 C 184.756 279.132,183.216 277.781,181.523 276.361 C 175.606 271.401,167.864 262.998,165.197 258.639 C 164.874 258.113,164.336 257.390,163.999 257.034 C 163.663 256.678,163.003 255.884,162.532 255.270 C 162.062 254.656,161.351 253.748,160.954 253.253 C 160.556 252.758,159.895 251.737,159.486 250.984 C 159.076 250.231,157.897 248.229,156.865 246.536 C 155.833 244.842,154.673 242.840,154.288 242.087 C 153.902 241.334,153.073 239.795,152.445 238.666 C 147.725 230.172,143.739 219.078,144.967 217.850 C 145.308 217.509,195.477 217.585,196.017 217.927 " stroke="none" fill="#c9ccd0" fill-rule="evenodd"></path></g></svg>